<svg width="99" height="99" viewBox="0 0 99 99" fill="none" xmlns="http://www.w3.org/2000/svg">
<path d="M70.6396 28.2126C82.3553 39.9283 82.3553 58.9233 70.6396 70.639C58.9239 82.3547 39.9289 82.3547 28.2132 70.639C16.4975 58.9233 16.4975 39.9283 28.2132 28.2126C39.9289 16.4968 58.9239 16.4968 70.6396 28.2126ZM30.1034 68.7488C40.7752 79.4206 58.0776 79.4206 68.7494 68.7488C79.4212 58.077 79.4212 40.7746 68.7494 30.1028C58.0776 19.431 40.7752 19.431 30.1034 30.1028C19.4316 40.7746 19.4316 58.077 30.1034 68.7488Z" fill="#38A15B"/>
<path d="M46.5858 58.1667H46.5608C46.1991 58.16 45.8574 57.995 45.6241 57.7167L37.2908 47.7167C36.8474 47.1867 36.9191 46.3984 37.4508 45.9567C37.9808 45.515 38.7674 45.585 39.2124 46.1167L46.6208 55.0067L60.6558 39.4134C61.1191 38.9 61.9091 38.86 62.4224 39.32C62.9358 39.7817 62.9774 40.5717 62.5158 41.0867L47.5158 57.7534C47.2774 58.0167 46.9408 58.1667 46.5858 58.1667Z" fill="#38A15B"/>
</svg>
