<svg width="56" height="56" viewBox="0 0 56 56" fill="none" xmlns="http://www.w3.org/2000/svg">
<path d="M56 28C56 43.464 43.464 56 28 56C12.536 56 0 43.464 0 28C0 12.536 12.536 0 28 0C43.464 0 56 12.536 56 28Z" fill="#7D9CFC"/>
<path d="M28 3.5C23.1544 3.5 18.4175 4.9369 14.3885 7.62899C10.3595 10.3211 7.21931 14.1475 5.36496 18.6243C3.51062 23.101 3.02543 28.0272 3.97077 32.7797C4.91611 37.5322 7.24951 41.8977 10.6759 45.3241C14.1023 48.7505 18.4678 51.0839 23.2203 52.0292C27.9728 52.9746 32.899 52.4894 37.3758 50.635C41.8525 48.7807 45.6789 45.6405 48.371 41.6115C51.0631 37.5825 52.5 32.8456 52.5 28C52.5 21.5022 49.9188 15.2705 45.3241 10.6759C40.7295 6.08124 34.4978 3.5 28 3.5ZM17.5 46.1825C17.76 43.5923 18.9729 41.191 20.9034 39.4446C22.8339 37.6982 25.3443 36.7312 27.9475 36.7312C30.5507 36.7312 33.0611 37.6982 34.9916 39.4446C36.9221 41.191 38.135 43.5923 38.395 46.1825C35.2227 48.0285 31.6179 49.001 27.9475 49.001C24.2772 49.001 20.6724 48.0285 17.5 46.1825ZM41.545 43.9775C40.7991 40.9343 39.0539 38.2293 36.5887 36.2954C34.1235 34.3614 31.0808 33.3104 27.9475 33.3104C24.8142 33.3104 21.7715 34.3614 19.3063 36.2954C16.8411 38.2293 15.0959 40.9343 14.35 43.9775C11.0742 41.1942 8.73148 37.4726 7.63814 33.3154C6.54481 29.1582 6.75356 24.7657 8.23621 20.7309C9.71885 16.6961 12.404 13.2135 15.9289 10.7534C19.4539 8.29326 23.6489 6.97413 27.9475 6.97413C32.2461 6.97413 36.4411 8.29326 39.9661 10.7534C43.4911 13.2135 46.1762 16.6961 47.6588 20.7309C49.1415 24.7657 49.3502 29.1582 48.2569 33.3154C47.1635 37.4726 44.8208 41.1942 41.545 43.9775ZM28 14C26.2694 14 24.5777 14.5132 23.1388 15.4746C21.6998 16.4361 20.5783 17.8027 19.9161 19.4015C19.2538 21.0004 19.0805 22.7597 19.4181 24.457C19.7558 26.1544 20.5891 27.7135 21.8128 28.9372C23.0365 30.1609 24.5956 30.9943 26.293 31.3319C27.9903 31.6695 29.7496 31.4962 31.3485 30.8339C32.9473 30.1717 34.3139 29.0502 35.2754 27.6112C36.2368 26.1723 36.75 24.4806 36.75 22.75C36.75 20.4294 35.8281 18.2038 34.1872 16.5628C32.5463 14.9219 30.3207 14 28 14ZM28 28C26.9617 28 25.9466 27.6921 25.0833 27.1152C24.2199 26.5383 23.547 25.7184 23.1496 24.7591C22.7523 23.7998 22.6483 22.7442 22.8509 21.7258C23.0535 20.7074 23.5535 19.7719 24.2877 19.0377C25.0219 18.3035 25.9574 17.8034 26.9758 17.6009C27.9942 17.3983 29.0498 17.5023 30.0091 17.8996C30.9684 18.297 31.7883 18.9699 32.3652 19.8333C32.9421 20.6966 33.25 21.7116 33.25 22.75C33.25 24.1424 32.6969 25.4777 31.7123 26.4623C30.7278 27.4469 29.3924 28 28 28Z" fill="#FAFBFF"/>
</svg>
