<svg width="32" height="32" viewBox="0 0 32 32" fill="none" xmlns="http://www.w3.org/2000/svg">
<g clip-path="url(#clip0_1206_5741)">
<path d="M23.0398 16.0001C23.0398 16.3521 22.7518 16.6401 22.3998 16.6401H16.6398V22.4001C16.6398 22.7521 16.3518 23.0401 15.9998 23.0401C15.6478 23.0401 15.3598 22.7521 15.3598 22.4001V16.6401H9.59984C9.24784 16.6401 8.95984 16.3521 8.95984 16.0001C8.95984 15.6481 9.24784 15.3601 9.59984 15.3601H15.3598V9.60009C15.3598 9.24809 15.6478 8.96009 15.9998 8.96009C16.3518 8.96009 16.6398 9.24809 16.6398 9.60009V15.3601H22.3998C22.7518 15.3601 23.0398 15.6481 23.0398 16.0001ZM28.1598 16.0001C28.1598 22.7201 22.7198 28.1601 15.9998 28.1601C9.27984 28.1601 3.83984 22.7201 3.83984 16.0001C3.83984 9.28009 9.27984 3.84009 15.9998 3.84009C22.7198 3.84009 28.1598 9.28009 28.1598 16.0001ZM26.8798 16.0001C26.8798 9.98409 22.0158 5.12009 15.9998 5.12009C9.98384 5.12009 5.11984 9.98409 5.11984 16.0001C5.11984 22.0161 9.98384 26.8801 15.9998 26.8801C22.0158 26.8801 26.8798 22.0161 26.8798 16.0001Z" fill="#1A0078"/>
<path d="M481.28 -387.2V151.68H-89.6002V-387.2H481.28ZM483.84 -389.76H-92.1602V154.24H483.84V-389.76Z" fill="#0000FF"/>
</g>
<defs>
<clipPath id="clip0_1206_5741">
<rect width="32" height="32" fill="white"/>
</clipPath>
</defs>
</svg>
