<svg width="70" height="70" viewBox="0 0 70 70" fill="none" xmlns="http://www.w3.org/2000/svg">
<circle cx="35" cy="35" r="35" fill="#E1E5FF"/>
<path d="M18.1663 36.1088H33.8463V51.7888C33.8463 52.0859 33.9643 52.3708 34.1743 52.5808C34.3843 52.7908 34.6692 52.9088 34.9663 52.9088C35.2633 52.9088 35.5482 52.7908 35.7582 52.5808C35.9683 52.3708 36.0863 52.0859 36.0863 51.7888V36.1088H51.7663C52.0633 36.1088 52.3482 35.9908 52.5582 35.7808C52.7683 35.5708 52.8863 35.2859 52.8863 34.9888C52.8863 34.6918 52.7683 34.4069 52.5582 34.1969C52.3482 33.9868 52.0633 33.8688 51.7663 33.8688H36.0863V18.1888C36.0863 17.8918 35.9683 17.6069 35.7582 17.3969C35.5482 17.1868 35.2633 17.0688 34.9663 17.0688C34.6692 17.0688 34.3843 17.1868 34.1743 17.3969C33.9643 17.6069 33.8463 17.8918 33.8463 18.1888V33.8688H18.1663C17.8692 33.8688 17.5843 33.9868 17.3743 34.1969C17.1643 34.4069 17.0463 34.6918 17.0463 34.9888C17.0463 35.2859 17.1643 35.5708 17.3743 35.7808C17.5843 35.9908 17.8692 36.1088 18.1663 36.1088Z" fill="#0E2E93"/>
</svg>
