<svg width="70" height="70" viewBox="0 0 70 70" fill="none" xmlns="http://www.w3.org/2000/svg">
    <circle cx="35" cy="35" r="35" fill="#7369FB"/>
    <path d="M18.1661 36.1084H33.8461V51.7884C33.8461 52.0854 33.9641 52.3703 34.1742 52.5803C34.3842 52.7904 34.6691 52.9084 34.9661 52.9084C35.2632 52.9084 35.5481 52.7904 35.7581 52.5803C35.9681 52.3703 36.0861 52.0854 36.0861 51.7884V36.1084H51.7661C52.0632 36.1084 52.3481 35.9904 52.5581 35.7803C52.7681 35.5703 52.8861 35.2854 52.8861 34.9884C52.8861 34.6913 52.7681 34.4064 52.5581 34.1964C52.3481 33.9864 52.0632 33.8684 51.7661 33.8684H36.0861V18.1884C36.0861 17.8913 35.9681 17.6064 35.7581 17.3964C35.5481 17.1864 35.2632 17.0684 34.9661 17.0684C34.6691 17.0684 34.3842 17.1864 34.1742 17.3964C33.9641 17.6064 33.8461 17.8913 33.8461 18.1884V33.8684H18.1661C17.8691 33.8684 17.5842 33.9864 17.3742 34.1964C17.1641 34.4064 17.0461 34.6913 17.0461 34.9884C17.0461 35.2854 17.1641 35.5703 17.3742 35.7803C17.5842 35.9904 17.8691 36.1084 18.1661 36.1084Z" fill="white"/>
</svg>
