<svg width="30" height="30" viewBox="0 0 30 30" fill="none" xmlns="http://www.w3.org/2000/svg">
<g clip-path="url(#clip0_863_574)">
<path fill-rule="evenodd" clip-rule="evenodd" d="M30 15C30 6.72231 23.2777 0 15 0C6.72231 0 0 6.72231 0 15C0 23.2777 6.72231 30 15 30C23.2777 30 30 23.2777 30 15ZM28.8462 15C28.8462 22.6535 22.6535 28.8462 15 28.8462C7.34654 28.8462 1.15385 22.6535 1.15385 15C1.15385 7.34654 7.34654 1.15385 15 1.15385C22.6535 1.15385 28.8462 7.34654 28.8462 15ZM20.7692 12.3462L20.0077 11.5385L15 16.8462L9.99231 11.5385L9.23077 12.3462L15 18.4615L20.7692 12.3462Z" fill="#1A0078"/>
</g>
<defs>
<clipPath id="clip0_863_574">
<rect width="30" height="30" fill="white" transform="matrix(0 1 -1 0 30 0)"/>
</clipPath>
</defs>
</svg>
