<svg width="56" height="56" viewBox="0 0 56 56" fill="none" xmlns="http://www.w3.org/2000/svg">
<rect width="56" height="56" fill="#F1F3FF"/>
<path d="M29.6397 27.0885H17.0966L25.2285 19.6071C25.3115 19.5306 25.38 19.4368 25.4302 19.331C25.4804 19.2253 25.5112 19.1097 25.5209 18.9907C25.5306 18.8718 25.519 18.752 25.4868 18.638C25.4545 18.5241 25.4023 18.4182 25.333 18.3266C25.2637 18.2349 25.1787 18.1592 25.083 18.1038C24.9872 18.0484 24.8824 18.0144 24.7747 18.0037C24.667 17.993 24.5585 18.0058 24.4553 18.0414C24.3521 18.077 24.2562 18.1347 24.1732 18.2112L14.2955 27.2993C14.2864 27.3075 14.2831 27.3211 14.2749 27.3293C14.2169 27.3908 14.1675 27.4616 14.1284 27.5392C14.109 27.5684 14.0911 27.5987 14.0749 27.6301C14.0256 27.7458 14 27.8721 14 28C14 28.1279 14.0256 28.2542 14.0749 28.3699C14.0911 28.4013 14.109 28.4316 14.1284 28.4608C14.1675 28.5384 14.2169 28.6092 14.2749 28.6707C14.2831 28.6789 14.2864 28.6925 14.2955 28.7007L24.1732 37.7888C24.2562 37.8653 24.3521 37.923 24.4553 37.9586C24.5585 37.9942 24.667 38.007 24.7747 37.9963C24.8824 37.9856 24.9872 37.9516 25.083 37.8962C25.1787 37.8408 25.2637 37.7651 25.333 37.6734C25.4023 37.5818 25.4545 37.4759 25.4868 37.362C25.519 37.248 25.5306 37.1282 25.5209 37.0093C25.5112 36.8903 25.4804 36.7747 25.4302 36.669C25.38 36.5632 25.3115 36.4694 25.2285 36.3929L17.0966 28.9061H29.6397C31.6038 28.9085 36.3409 28.9061 36.3409 28.9061H37.5756C37.5756 28.9061 41.2798 28.9061 41.6913 28.9061C42.1029 28.9061 42.1029 27.0885 41.6913 27.0885C41.2798 27.0885 40.8117 27.0885 41.2798 27.0885C41.6913 27.1743 41.6913 27.1743 41.2798 27.0885H39.2219C18.1157 27.0918 29.0602 27.0885 31.286 27.0885C33.8804 27.0885 32.0402 27.0916 29.6397 27.0885Z" fill="#0E2E93"/>
</svg>
