<svg width="28" height="20" viewBox="0 0 28 20" fill="none" xmlns="http://www.w3.org/2000/svg">
<path d="M15.6397 9.08846H3.09663L11.2285 1.6071C11.3115 1.5306 11.38 1.4368 11.4302 1.33104C11.4804 1.22529 11.5112 1.10966 11.5209 0.990748C11.5306 0.871841 11.519 0.751987 11.4868 0.63803C11.4545 0.524072 11.4023 0.418243 11.333 0.326585C11.2637 0.234926 11.1787 0.159233 11.083 0.103828C10.9872 0.048422 10.8824 0.0143884 10.7747 0.00367075C10.667 -0.00704693 10.5585 0.00576081 10.4553 0.0413628C10.3521 0.0769647 10.2562 0.134664 10.1732 0.211165L0.295479 9.2993C0.286424 9.30748 0.283131 9.32112 0.2749 9.3293C0.216869 9.39083 0.167484 9.46159 0.128381 9.53923C0.108963 9.56835 0.0910983 9.5987 0.0748764 9.63011C0.0255671 9.74582 0 9.87212 0 10C0 10.1279 0.0255671 10.2542 0.0748764 10.3699C0.0910983 10.4013 0.108963 10.4316 0.128381 10.4608C0.167484 10.5384 0.216869 10.6092 0.2749 10.6707C0.283131 10.6789 0.286424 10.6925 0.295479 10.7007L10.1732 19.7888C10.2562 19.8653 10.3521 19.923 10.4553 19.9586C10.5585 19.9942 10.667 20.007 10.7747 19.9963C10.8824 19.9856 10.9872 19.9516 11.083 19.8962C11.1787 19.8408 11.2637 19.7651 11.333 19.6734C11.4023 19.5818 11.4545 19.4759 11.4868 19.362C11.519 19.248 11.5306 19.1282 11.5209 19.0093C11.5112 18.8903 11.4804 18.7747 11.4302 18.669C11.38 18.5632 11.3115 18.4694 11.2285 18.3929L3.09663 10.9061H15.6397C17.6038 10.9085 22.3409 10.9061 22.3409 10.9061H23.5756C23.5756 10.9061 27.2798 10.9061 27.6913 10.9061C28.1029 10.9061 28.1029 9.08846 27.6913 9.08846C27.2798 9.08846 26.8117 9.08846 27.2798 9.08846C27.6913 9.17434 27.6913 9.17434 27.2798 9.08846H25.2219C4.11571 9.09181 15.0602 9.08846 17.286 9.08846C19.8804 9.08846 18.0402 9.09159 15.6397 9.08846Z" fill="#0E2E93"/>
</svg>
