<svg width="80" height="80" viewBox="0 0 80 80" fill="none" xmlns="http://www.w3.org/2000/svg">
<circle cx="39" cy="40" r="35" fill="#E1E5FF"/>
<path d="M28.1737 53.3944L39.2611 42.3069L50.3485 53.3944C50.5586 53.6044 50.8435 53.7224 51.1405 53.7224C51.4375 53.7224 51.7224 53.6044 51.9325 53.3944C52.1425 53.1843 52.2605 52.8995 52.2605 52.6024C52.2605 52.3054 52.1425 52.0205 51.9325 51.8105L40.845 40.723L51.9325 29.6356C52.1425 29.4255 52.2605 29.1407 52.2605 28.8436C52.2605 28.5466 52.1425 28.2617 51.9325 28.0517C51.7224 27.8416 51.4375 27.7236 51.1405 27.7236C50.8435 27.7236 50.5586 27.8416 50.3485 28.0517L39.2611 39.1391L28.1737 28.0517C27.9636 27.8416 27.6788 27.7236 27.3817 27.7236C27.0847 27.7236 26.7998 27.8416 26.5897 28.0517C26.3797 28.2617 26.2617 28.5466 26.2617 28.8436C26.2617 29.1407 26.3797 29.4255 26.5897 29.6356L37.6772 40.723L26.5897 51.8105C26.3797 52.0205 26.2617 52.3054 26.2617 52.6024C26.2617 52.8995 26.3797 53.1843 26.5897 53.3944C26.7998 53.6044 27.0847 53.7224 27.3817 53.7224C27.6788 53.7224 27.9636 53.6044 28.1737 53.3944Z" fill="#0E2E93"/>
</svg>
