<svg width="100" height="100" viewBox="0 0 100 100" fill="none" xmlns="http://www.w3.org/2000/svg">
<circle cx="49.9999" cy="50" r="35" transform="rotate(-45 49.9999 50)" fill="#7369FB"/>
<path d="M38.8808 62.687L49.9682 51.5995L61.0556 62.687C61.2657 62.897 61.5505 63.015 61.8476 63.015C62.1446 63.015 62.4295 62.897 62.6395 62.687C62.8496 62.4769 62.9676 62.1921 62.9676 61.895C62.9676 61.598 62.8496 61.3131 62.6395 61.1031L51.5521 50.0156L62.6395 38.9282C62.8496 38.7181 62.9676 38.4333 62.9676 38.1362C62.9676 37.8392 62.8496 37.5543 62.6395 37.3443C62.4295 37.1342 62.1446 37.0162 61.8476 37.0162C61.5505 37.0162 61.2657 37.1342 61.0556 37.3443L49.9682 48.4317L38.8808 37.3443C38.6707 37.1342 38.3858 37.0162 38.0888 37.0162C37.7918 37.0162 37.5069 37.1342 37.2968 37.3443C37.0868 37.5543 36.9688 37.8392 36.9688 38.1362C36.9688 38.4333 37.0868 38.7182 37.2968 38.9282L48.3843 50.0156L37.2968 61.1031C37.0868 61.3131 36.9688 61.598 36.9688 61.895C36.9688 62.1921 37.0868 62.4769 37.2968 62.687C37.5069 62.897 37.7918 63.015 38.0888 63.015C38.3858 63.015 38.6707 62.897 38.8808 62.687Z" fill="white"/>
</svg>
