<svg width="70" height="70" viewBox="0 0 70 70" fill="none" xmlns="http://www.w3.org/2000/svg">
    <!-- Фон: круг -->
    <circle cx="35" cy="35" r="35" fill="#7369FB"/>

    <!-- Перо: перемещено так, чтобы его центр совпадал с центром круга -->
    <g transform="translate(15,15)">
        <path d="M36.6666 12.0673C36.6679 11.848 36.6258 11.6306 36.5429 11.4275C36.46 11.2244 36.3377 11.0397 36.1833 10.884L29.1166 3.81735C28.9609 3.66288 28.7762 3.54067 28.5731 3.45773C28.3701 3.37479 28.1526 3.33274 27.9333 3.33401C27.7139 3.33274 27.4965 3.37479 27.2934 3.45773C27.0904 3.54067 26.9057 3.66288 26.7499 3.81735L22.0333 8.53401L3.81661 26.7507C3.66214 26.9064 3.53994 27.0911 3.45699 27.2942C3.37405 27.4972 3.33201 27.7147 3.33328 27.934V35.0007C3.33328 35.4427 3.50887 35.8666 3.82144 36.1792C4.134 36.4918 4.55792 36.6673 4.99995 36.6673H12.0666C12.2998 36.68 12.5331 36.6436 12.7513 36.5603C12.9695 36.477 13.1678 36.3488 13.3333 36.184L31.4499 17.9673L36.1833 13.334C36.3354 13.1725 36.4594 12.9866 36.5499 12.784C36.566 12.6512 36.566 12.5169 36.5499 12.384C36.5577 12.3064 36.5577 12.2283 36.5499 12.1507L36.6666 12.0673ZM11.3833 33.334H6.66661V28.6173L23.2166 12.0673L27.9333 16.784L11.3833 33.334ZM30.2833 14.434L25.5666 9.71735L27.9333 7.36735L32.6333 12.0673L30.2833 14.434Z" fill="white"/>
    </g>
</svg>
