<svg width="70" height="70" viewBox="0 0 70 70" fill="none" xmlns="http://www.w3.org/2000/svg">
<circle cx="35" cy="35" r="35" fill="#B2B1FF"/>
<path d="M51.6669 27.0666C51.6681 26.8473 51.6261 26.6298 51.5431 26.4268C51.4602 26.2237 51.338 26.039 51.1835 25.8833L44.1169 18.8166C43.9611 18.6621 43.7764 18.5399 43.5734 18.457C43.3703 18.3741 43.1529 18.332 42.9335 18.3333C42.7142 18.332 42.4967 18.3741 42.2937 18.457C42.0906 18.5399 41.9059 18.6621 41.7502 18.8166L37.0335 23.5333L18.8169 41.7499C18.6624 41.9057 18.5402 42.0904 18.4572 42.2934C18.3743 42.4965 18.3323 42.7139 18.3335 42.9333V49.9999C18.3335 50.442 18.5091 50.8659 18.8217 51.1785C19.1342 51.491 19.5582 51.6666 20.0002 51.6666H27.0669C27.3001 51.6793 27.5333 51.6428 27.7516 51.5596C27.9698 51.4763 28.168 51.3481 28.3335 51.1833L46.4502 32.9666L51.1835 28.3333C51.3357 28.1717 51.4596 27.9858 51.5502 27.7833C51.5662 27.6504 51.5662 27.5161 51.5502 27.3833C51.558 27.3057 51.558 27.2275 51.5502 27.1499L51.6669 27.0666ZM26.3835 48.3333H21.6669V43.6166L38.2169 27.0666L42.9335 31.7833L26.3835 48.3333ZM45.2835 29.4333L40.5669 24.7166L42.9335 22.3666L47.6335 27.0666L45.2835 29.4333Z" fill="white"/>
</svg>
