<svg width="70" height="70" viewBox="0 0 70 70" fill="none" xmlns="http://www.w3.org/2000/svg">
<circle cx="35" cy="35" r="35" fill="white"/>
<path d="M35 0C28.0777 0 21.3108 2.05271 15.5551 5.89856C9.79933 9.74441 5.3133 15.2107 2.66423 21.6061C0.0151649 28.0015 -0.677952 35.0388 0.672531 41.8281C2.02301 48.6175 5.35644 54.8539 10.2513 59.7487C15.1461 64.6436 21.3825 67.977 28.1719 69.3275C34.9612 70.6779 41.9985 69.9848 48.3939 67.3358C54.7893 64.6867 60.2556 60.2007 64.1014 54.4449C67.9473 48.6892 70 41.9223 70 35C69.9898 25.7205 66.299 16.8241 59.7375 10.2625C53.1759 3.70095 44.2795 0.0101906 35 0ZM53.2245 26.6455L31.5665 48.3035C30.9102 48.9596 30.0201 49.3282 29.092 49.3282C28.1639 49.3282 27.2739 48.9596 26.6175 48.3035L16.7755 38.458C16.138 37.7979 15.7852 36.9138 15.7932 35.9961C15.8011 35.0784 16.1692 34.2006 16.8181 33.5516C17.4671 32.9027 18.3449 32.5346 19.2626 32.5266C20.1803 32.5187 21.0644 32.8714 21.7245 33.509L29.092 40.88L48.2755 21.7C48.9381 21.0777 49.8169 20.7377 50.7258 20.7518C51.6347 20.7659 52.5024 21.1331 53.1454 21.7756C53.7884 22.4182 54.1562 23.2857 54.171 24.1945C54.1857 25.1034 53.8463 25.9824 53.2245 26.6455Z" fill="#8E8DFD"/>
</svg>
