<svg width="99" height="99" viewBox="0 0 99 99" fill="none" xmlns="http://www.w3.org/2000/svg">
<path d="M70.6396 28.2126C82.3553 39.9283 82.3553 58.9233 70.6396 70.639C58.9239 82.3547 39.9289 82.3547 28.2132 70.639C16.4975 58.9233 16.4975 39.9283 28.2132 28.2126C39.9289 16.4968 58.9239 16.4968 70.6396 28.2126ZM30.1034 68.7488C40.7752 79.4206 58.0776 79.4206 68.7494 68.7488C79.4212 58.077 79.4212 40.7746 68.7494 30.1028C58.0776 19.431 40.7752 19.431 30.1034 30.1028C19.4316 40.7746 19.4316 58.077 30.1034 68.7488Z" fill="#C35E5F"/>
<path d="M38.3783 62.185L49.4658 51.0976L60.5532 62.185C60.7632 62.3951 61.0481 62.5131 61.3451 62.5131C61.6422 62.5131 61.9271 62.3951 62.1371 62.185C62.3471 61.975 62.4651 61.6901 62.4651 61.3931C62.4651 61.096 62.3471 60.8111 62.1371 60.6011L51.0497 49.5137L62.1371 38.4262C62.3471 38.2162 62.4651 37.9313 62.4651 37.6343C62.4651 37.3372 62.3471 37.0524 62.1371 36.8423C61.9271 36.6323 61.6422 36.5143 61.3451 36.5143C61.0481 36.5143 60.7632 36.6323 60.5532 36.8423L49.4658 47.9298L38.3783 36.8423C38.1683 36.6323 37.8834 36.5143 37.5864 36.5143C37.2893 36.5143 37.0044 36.6323 36.7944 36.8423C36.5844 37.0524 36.4664 37.3372 36.4664 37.6343C36.4664 37.9313 36.5844 38.2162 36.7944 38.4262L47.8818 49.5137L36.7944 60.6011C36.5844 60.8111 36.4664 61.096 36.4664 61.3931C36.4664 61.6901 36.5844 61.975 36.7944 62.185C37.0044 62.3951 37.2893 62.5131 37.5864 62.5131C37.8834 62.5131 38.1683 62.3951 38.3783 62.185Z" fill="#C35E5F"/>
</svg>
