<svg width="31" height="36" viewBox="0 0 31 36" fill="none" xmlns="http://www.w3.org/2000/svg">
<path d="M30.9098 16.835C30.8529 16.6654 30.7715 16.5108 30.6697 16.3791L27.6682 12.58C27.4572 12.3132 27.1711 12.1633 26.8728 12.1633C26.5745 12.1633 26.2884 12.3132 26.0774 12.58C25.8666 12.8471 25.7482 13.2092 25.7482 13.5867C25.7482 13.9643 25.8666 14.3264 26.0774 14.5935L27.1579 15.9612H19.369C19.0705 15.9612 18.7842 16.1113 18.5731 16.3785C18.362 16.6456 18.2434 17.008 18.2434 17.3858C18.2434 17.7637 18.362 18.1261 18.5731 18.3932C18.7842 18.6604 19.0705 18.8105 19.369 18.8105H27.1579L26.0774 20.1782C25.8786 20.4483 25.7703 20.8055 25.7755 21.1745C25.7806 21.5436 25.8988 21.8958 26.105 22.1568C26.3112 22.4178 26.5894 22.5674 26.881 22.5739C27.1726 22.5804 27.4548 22.4434 27.6682 22.1917L30.6697 18.3926C30.7715 18.2609 30.8529 18.1062 30.9098 17.9367C30.9693 17.7628 31 17.5753 31 17.3858C31 17.1963 30.9693 17.0089 30.9098 16.835ZM24.7625 8.51202V4.71289C24.7586 3.83279 24.4806 2.99016 23.989 2.36782C23.4973 1.74549 22.8315 1.39366 22.1362 1.38867H13.747C13.6057 1.14044 13.4392 0.916893 13.2517 0.723827C12.7865 0.271915 12.2173 0.0250816 11.6309 0.0209961C11.4214 -0.00700378 11.2101 -0.00700378 11.0006 0.0209961L1.99601 2.87033C1.42599 3.04871 0.919637 3.46371 0.557825 4.04907C0.196013 4.63443 -0.00038441 5.35637 5.64886e-07 6.09958V29.8251C-0.00038441 30.5683 0.196013 31.2902 0.557825 31.8756C0.919637 32.4609 1.42599 32.8759 1.99601 33.0543L11.0006 35.9037C11.3877 36.0239 11.7913 36.0317 12.1812 35.9264C12.5711 35.8212 12.937 35.6056 13.2517 35.2958C13.4392 35.1027 13.6057 34.8792 13.747 34.6309H22.1362C22.8315 34.626 23.4973 34.2741 23.989 33.6518C24.4806 33.0295 24.7586 32.1868 24.7625 31.3067V27.5076C24.7625 27.1298 24.644 26.7674 24.4329 26.5002C24.2218 26.233 23.9355 26.0829 23.637 26.0829C23.3384 26.0829 23.0522 26.233 22.8411 26.5002C22.63 26.7674 22.5114 27.1298 22.5114 27.5076V31.3067C22.5114 31.4327 22.4719 31.5535 22.4015 31.6425C22.3311 31.7316 22.2357 31.7816 22.1362 31.7816H14.2572V4.23802H22.1362C22.2357 4.23802 22.3311 4.28805 22.4015 4.3771C22.4719 4.46616 22.5114 4.58695 22.5114 4.71289V8.51202C22.5114 8.88986 22.63 9.25223 22.8411 9.51941C23.0522 9.78658 23.3384 9.93669 23.637 9.93669C23.9355 9.93669 24.2218 9.78658 24.4329 9.51941C24.644 9.25223 24.7625 8.88986 24.7625 8.51202ZM12.0061 32.6744C12.0125 32.7414 12.0075 32.8093 11.9916 32.8737C11.9756 32.938 11.949 32.9974 11.9135 33.0477C11.878 33.098 11.8344 33.1382 11.7857 33.1655C11.737 33.1929 11.6842 33.2068 11.6309 33.2063H11.5408L2.53628 30.3569C2.45677 30.3289 2.38633 30.2697 2.33509 30.1877C2.28385 30.1058 2.25446 30.0054 2.25114 29.901V6.19456C2.25446 6.09016 2.28385 5.98979 2.33509 5.90787C2.38633 5.82595 2.45677 5.76671 2.53628 5.73867L11.5408 2.88933C11.5902 2.8604 11.644 2.84541 11.6984 2.84541C11.7528 2.84541 11.8066 2.8604 11.856 2.88933C11.9035 2.93248 11.942 2.98962 11.9681 3.05581C11.9943 3.122 12.0073 3.19524 12.0061 3.26923V32.6744Z" fill="#6563FF"/>
<path d="M30.6697 16.3791C30.7715 16.5108 30.8529 16.6654 30.9098 16.835C30.9693 17.0089 31 17.1963 31 17.3858C31 17.5753 30.9693 17.7628 30.9098 17.9367C30.8529 18.1062 30.7715 18.2609 30.6697 18.3926L27.6682 22.1917C27.4548 22.4434 27.1726 22.5804 26.881 22.5739C26.5894 22.5674 26.3112 22.4178 26.105 22.1568C25.8988 21.8958 25.7806 21.5436 25.7755 21.1745C25.7703 20.8055 25.8786 20.4483 26.0774 20.1782L27.1579 18.8105H19.369C19.0705 18.8105 18.7842 18.6604 18.5731 18.3932C18.362 18.1261 18.2434 17.7637 18.2434 17.3858C18.2434 17.008 18.362 16.6456 18.5731 16.3785C18.7842 16.1113 19.0705 15.9612 19.369 15.9612H27.1579L26.0774 14.5935C25.8666 14.3264 25.7482 13.9643 25.7482 13.5867C25.7482 13.2092 25.8666 12.8471 26.0774 12.58C26.2884 12.3132 26.5745 12.1633 26.8728 12.1633C27.1711 12.1633 27.4572 12.3132 27.6682 12.58L30.6697 16.3791Z" fill="#9865FF"/>
</svg>
