<svg width="130" height="74" viewBox="0 0 130 74" fill="none" xmlns="http://www.w3.org/2000/svg">
<path d="M18.0208 50.3844C18.0208 49.2322 18.3111 47.6323 18.8919 45.5843C19.505 43.5363 20.2956 41.2963 21.2635 38.8642C22.2316 36.4323 23.3287 33.9203 24.5548 31.3282C25.7809 28.7363 27.0069 26.3203 28.233 24.0803C29.4914 21.8403 30.6853 19.9043 31.8148 18.2723C32.9763 16.6403 33.9605 15.5363 34.7672 14.9603C35.2189 14.9923 35.7029 15.1843 36.2192 15.5363C36.7677 15.8883 37.268 16.3203 37.7196 16.8323C38.1713 17.3123 38.5425 17.8243 38.8327 18.3683C39.1957 18.9603 39.7001 19.5123 39.7001 19.9603C38.2478 21.1123 36.3804 22.4963 34.8639 24.3203C33.3798 26.1123 31.9599 28.0963 30.6048 30.2724C29.2496 32.4163 27.991 34.7044 26.8295 37.1363C25.7002 39.5363 24.7484 41.9043 23.9739 44.2403C25.0065 42.4803 26.0875 40.8803 27.2169 39.4404C28.3461 38.0002 29.4754 36.7684 30.6048 35.7444C31.7341 34.7202 32.8313 33.9363 33.8958 33.3922C34.993 32.8162 36.0256 32.5122 36.9937 32.4804C38.4133 33.5044 39.1232 34.8644 39.1232 36.5603C39.1232 37.5843 38.9134 38.6243 38.4941 39.6803C38.0744 40.7043 37.51 41.6644 36.8001 42.5604C36.1223 43.4244 35.3319 44.1764 34.4283 44.8163C33.5572 45.4243 32.6377 45.8242 31.6695 46.0163C31.9922 47.1364 32.3957 48.2723 32.8797 49.4243C33.3957 50.5762 33.9928 51.6963 34.6703 52.7842C35.3802 53.8723 36.1708 54.8803 37.0421 55.8083C37.9454 56.7364 38.962 57.5202 40.0911 58.1603C39.9299 58.4803 39.6879 58.8003 39.3652 59.1204C39.0423 59.4402 38.6553 59.7124 38.2037 59.9363C37.7519 60.1922 37.2518 60.3843 36.7032 60.5123C36.1869 60.6723 35.6707 60.7524 35.1542 60.7524C34.2832 60.7524 33.4604 60.3204 32.6859 59.4562C31.9437 58.5923 31.2663 57.3444 30.6533 55.7124C30.1694 54.4004 29.7012 52.8323 29.2496 51.0082C28.7977 49.1843 28.3945 47.2804 28.0396 45.2963C28.4912 45.0083 29.056 44.5923 29.7334 44.0482C30.4112 43.4722 31.1211 42.8163 31.8632 42.0803C34.7026 39.3603 36.1223 37.0083 36.1223 35.0242C36.1223 34.7683 35.9449 34.6403 35.5901 34.6403C34.9446 34.6723 34.1863 34.9763 33.3152 35.5523C32.4438 36.1283 31.5081 36.9284 30.508 37.9524C29.54 38.9764 28.5397 40.1764 27.5071 41.5522C26.5068 42.9283 25.5388 44.4163 24.6031 46.0163C24.216 46.6563 23.0624 48.4604 23.0624 48.4604C23.0624 48.4604 19.2308 54.7683 19.0372 54.6083C18.7467 54.3844 18.5047 53.9043 18.3111 53.1683C18.1175 52.4323 18.0208 51.5043 18.0208 50.3844Z" fill="#0E2E93"/>
<path d="M19.8757 53.9639C19.7432 54.231 18.7469 55.648 17.9081 55.648C16.8755 55.52 15.8752 55.2641 14.9072 54.88C13.9715 54.496 13.2778 54.032 12.826 53.4881C12.5679 51.92 12.3581 50.48 12.1968 49.168C12.0355 47.8561 11.9064 46.624 11.8096 45.472C11.7128 44.288 11.6483 43.1679 11.616 42.1119C11.5838 41.024 11.5676 39.936 11.5676 38.8481C11.5676 37.408 11.5838 35.8881 11.616 34.2879C11.6483 32.688 11.6806 30.9921 11.7128 29.2001C11.7773 27.376 11.8258 25.44 11.858 23.392C11.8903 21.312 11.9064 19.056 11.9064 16.624C12.3259 16.624 12.9551 16.752 13.794 17.008C14.633 17.232 15.4557 17.504 16.2625 17.824C17.1013 18.144 17.8434 18.48 18.4888 18.832C19.1342 19.152 19.4892 19.424 19.5536 19.648C19.2309 20.544 18.9406 21.712 18.6824 23.152C18.4566 24.592 18.263 26.192 18.1016 27.952C17.9725 29.712 17.8758 31.5681 17.8112 33.5201C17.7467 35.4719 17.7145 37.408 17.7145 39.328C17.7145 40.7681 17.7305 42.064 17.7628 43.216C17.7951 44.3359 17.8274 45.3601 17.8596 46.288C17.9241 47.184 18.0048 48.0319 18.1016 48.832C18.1984 49.6 18.3113 50.3681 18.4404 51.1361C19.3439 48.416 20.328 45.696 21.3928 42.9761C22.4899 40.256 23.6031 37.6481 24.7324 35.1519C25.8941 32.6241 27.0396 30.2719 28.1687 28.096C29.2981 25.92 30.3631 24.032 31.3631 22.432C32.3957 20.8 33.3155 19.52 34.122 18.592C34.9287 17.632 35.5901 17.12 36.1064 17.056C36.4615 17.12 36.8323 17.264 37.2197 17.488C37.6391 17.68 38.2041 17.611 38.5592 17.8989C38.8239 18.2996 39.1208 18.7481 39.354 19.1011C39.6191 19.5018 39.8656 19.872 40.0268 20.224C38.833 20.64 37.5422 21.616 36.1549 23.152C34.7994 24.688 33.4283 26.544 32.0409 28.72C30.6533 30.8639 29.2981 33.2161 27.9751 35.7759C26.6845 38.304 25.5069 40.7839 24.4421 43.216C23.4095 45.6481 24.116 46.7509 22.9234 48.621C21.7052 50.531 19.8757 53.9639 19.8757 53.9639Z" fill="#0E2E93"/>
<path d="M57.2646 33.8082C57.5849 33.8082 57.9533 33.8723 58.3696 34.0002C58.8179 34.0962 59.2183 34.2402 59.5708 34.4322C59.9232 34.5922 60.2112 34.7683 60.4354 34.96C60.6917 35.1522 60.8199 35.3282 60.8199 35.4882C60.1792 36.8323 59.5866 38.1923 59.0423 39.5682C58.4976 40.9122 58.0332 42.208 57.6488 43.4562C57.2646 44.7043 56.9604 45.8723 56.7362 46.9602C56.5439 48.0482 56.4478 48.9923 56.4478 49.7922C56.4478 50.6882 56.5439 51.4402 56.7362 52.0482C56.9284 52.6242 57.2484 53.0402 57.697 53.2963C57.3125 53.5523 56.8161 53.76 56.2077 53.9202C55.599 54.0802 55.0546 54.1603 54.574 54.1603C52.8443 54.1603 51.9796 52.9763 51.9796 50.6083C51.9796 48.7842 52.5883 46.2882 53.8054 43.1202C53.1647 44.5922 52.4282 45.9842 51.5954 47.2962C50.7625 48.576 49.9136 49.7123 49.0489 50.7041C48.1842 51.6961 47.3034 52.5123 46.4066 53.1523C45.5419 53.76 44.7409 54.1282 44.0043 54.2562C42.8193 54.192 41.8584 53.6322 41.1216 52.576C40.385 51.4883 40.0167 50.1122 40.0167 48.4482C40.0167 46.656 40.4009 44.7682 41.1697 42.7843C41.9384 40.8002 42.9153 38.96 44.1005 37.2642C45.3176 35.5682 46.6308 34.1603 48.04 33.04C49.4493 31.8882 50.8107 31.2802 52.1239 31.2163C52.4441 31.3122 52.7965 31.5043 53.1808 31.7923C53.5971 32.0802 53.9815 32.4163 54.3339 32.8002C54.7181 33.184 55.0384 33.5843 55.2947 34.0002C55.551 34.3842 55.6951 34.7202 55.7271 35.0082C54.4459 35.2003 53.1168 35.8243 51.7396 36.88C50.3942 37.9362 49.1612 39.2163 48.04 40.7203C46.9509 42.1923 46.0542 43.7761 45.3496 45.472C44.6448 47.1681 44.2927 48.7522 44.2927 50.2242C44.2927 50.8322 44.5166 51.2163 44.9651 51.3763C45.894 51.1843 46.9671 50.4002 48.1842 49.024C49.4013 47.6162 50.8747 45.4563 52.6042 42.5442C52.9246 41.9682 53.277 41.328 53.6612 40.6242C54.0776 39.9202 54.4941 39.1842 54.9104 38.4162C55.3268 37.6482 55.7271 36.88 56.1116 36.1123C56.5277 35.3122 56.9122 34.5442 57.2646 33.8082ZM65.2939 34.816C65.1337 34.6243 64.9897 34.224 64.8615 33.6163C64.7335 32.9763 64.6693 32.4323 64.6693 31.9843C65.5023 32.0482 66.303 32.1123 67.0715 32.1762C67.8404 32.2082 68.5449 32.2403 69.1857 32.2723C69.666 31.3122 70.1786 30.368 70.723 29.4403C71.2996 28.4802 71.8439 27.6162 72.3565 26.8482C72.9012 26.0482 73.3976 25.3762 73.8458 24.8322C74.3264 24.2882 74.6947 23.9362 74.951 23.7762C75.2713 23.7762 75.6716 23.8402 76.1519 23.9682C76.6645 24.0642 77.1769 24.2082 77.6895 24.4002C78.2021 24.5602 78.6665 24.7362 79.0826 24.9282C79.4991 25.1202 79.7875 25.3122 79.9476 25.5042C78.9865 26.7202 78.1538 27.856 77.4492 28.9122C76.7765 29.9362 76.0399 31.1202 75.2392 32.4642C75.8797 32.4642 76.5205 32.448 77.161 32.4163C77.8335 32.3843 78.5062 32.3362 79.1788 32.2723C79.3389 32.4323 79.4671 32.6402 79.5631 32.8962C79.6592 33.1202 79.7072 33.3602 79.7072 33.6163C78.138 34.1923 76.2321 34.512 73.9902 34.5762C73.1893 36.1123 72.4685 37.6482 71.828 39.1842C71.2193 40.6883 70.6909 42.1442 70.2426 43.5522C69.8262 44.9602 69.49 46.2882 69.2335 47.536C69.0093 48.7842 68.8973 49.904 68.8973 50.8963C68.8973 52.3041 69.4258 53.0882 70.4827 53.2482C71.4437 53.1203 72.3565 52.8802 73.2212 52.5283C74.0862 52.1762 74.8549 51.7282 75.5273 51.1843C75.7196 51.4722 75.8319 51.7122 75.8638 51.9042C75.6717 52.1922 75.3351 52.5283 74.8549 52.9122C74.4064 53.2963 73.91 53.6642 73.3656 54.0163C72.8209 54.4002 72.2925 54.7202 71.7799 54.9762C71.2675 55.232 70.8831 55.3763 70.6268 55.4082C69.8262 55.3763 69.0255 55.2003 68.2246 54.8803C67.4239 54.5602 66.6873 54.1603 66.0146 53.6801C65.3741 53.2001 64.8456 52.6723 64.4292 52.0963C64.0127 51.4883 63.8046 50.8963 63.8046 50.3203C63.8046 49.5523 63.9007 48.5922 64.093 47.4402C64.3172 46.2562 64.6214 44.9763 65.0058 43.6002C65.39 42.2242 65.8385 40.7842 66.3508 39.2802C66.8634 37.776 67.4239 36.288 68.0326 34.816H65.2939ZM92.4181 52.1442C91.8094 51.6323 91.3933 50.9922 91.1689 50.2242C90.9767 49.456 90.8805 48.8002 90.8805 48.2563C90.8805 47.5842 90.9608 47.0082 91.1208 46.5282C90.9929 46.5282 90.7045 46.7843 90.256 47.2962C89.8077 47.8083 89.311 48.4163 88.7667 49.1203C88.2541 49.8242 87.7418 50.5122 87.2293 51.1843C86.7168 51.8562 86.3325 52.3522 86.0762 52.6723C85.6599 53.1203 85.2593 53.4722 84.8751 53.7283C84.5227 53.9841 84.2345 54.1282 84.0102 54.1603C83.4979 54.1282 82.9532 54.0163 82.3769 53.8242C81.8323 53.6642 81.3038 53.4243 80.7915 53.1043C80.3109 52.7842 79.8785 52.4003 79.494 51.9523C79.1416 51.5043 78.9015 50.9922 78.7735 50.4162C78.7735 49.5202 78.7895 48.7842 78.8216 48.2082C78.8856 47.6323 78.9977 47.0082 79.1578 46.3363C79.4462 45.1203 79.8623 43.7442 80.407 42.208C80.9835 40.6723 81.64 39.1682 82.3769 37.6962C83.1134 36.1922 83.9302 34.8003 84.827 33.5202C85.7559 32.2082 86.7327 31.1842 87.7577 30.4482C88.046 30.4482 88.3823 30.4803 88.7667 30.5442C89.1512 30.5762 89.5354 30.6563 89.9197 30.7843C90.3362 30.9123 90.7204 31.0723 91.0728 31.264C91.4573 31.4242 91.7773 31.6483 92.0336 31.9362C91.7454 32.2563 91.0088 33.328 89.8236 35.1522C88.6705 36.9763 87.3735 39.6002 85.9321 43.0242C85.7719 43.3763 85.5797 43.8882 85.3555 44.5603C85.1313 45.2322 84.9072 45.9361 84.683 46.6721C84.4587 47.4081 84.2664 48.128 84.1063 48.8323C83.9782 49.5361 83.914 50.0962 83.914 50.5122C83.914 50.7683 83.9461 50.9602 84.0102 51.088C84.1063 51.2163 84.1865 51.3122 84.2505 51.3763C84.7309 51.1843 85.3396 50.6562 86.0762 49.7922C86.813 48.9282 87.838 47.6002 89.1512 45.8082C89.4712 45.3602 89.8398 44.8483 90.256 44.2723C90.7045 43.696 91.1527 43.0883 91.6013 42.4483C92.0498 41.7762 92.466 41.0882 92.8505 40.3843C93.2669 39.6803 93.6031 38.9762 93.8596 38.2722C93.9876 37.8883 94.1475 37.4403 94.3397 36.9282C94.5641 36.3843 94.8204 35.8243 95.1086 35.248C95.4288 34.6722 95.7812 34.0962 96.1655 33.5202C96.5818 32.9122 97.0623 32.3522 97.607 31.8403C98.0231 31.8403 98.4717 31.8882 98.952 31.9843C99.4325 32.0802 99.881 32.2082 100.297 32.3682C100.746 32.4962 101.13 32.6562 101.45 32.8483C101.771 33.0083 102.011 33.184 102.171 33.3762C101.595 34.7843 100.954 36.1762 100.249 37.5522C99.5445 38.9283 98.8883 40.288 98.2796 41.6322C97.671 42.944 97.1584 44.2563 96.742 45.5683C96.3258 46.8802 96.1174 48.1602 96.1174 49.4083C96.1174 50.0802 96.1655 50.6722 96.2617 51.1843C96.3899 51.6643 96.5178 52.0803 96.6459 52.4322C96.7741 52.7522 96.8862 53.0242 96.9824 53.2482C97.1106 53.4722 97.1743 53.6642 97.1743 53.8242C97.1743 53.8563 97.1422 53.904 97.0785 53.9682C97.0464 54.0003 97.0145 54.0163 96.9824 54.0163C96.7582 54.0163 96.4698 53.9682 96.1174 53.8723C95.7653 53.7761 95.3647 53.6322 94.9165 53.4403C94.4999 53.2803 94.0676 53.0882 93.619 52.864C93.2029 52.6402 92.8025 52.4003 92.4181 52.1442ZM110.874 29.92C111.707 30.1763 112.492 30.7522 113.228 31.6483C113.965 32.5122 114.51 33.472 114.862 34.5282C114.51 35.3923 113.965 36.432 113.228 37.6482C112.492 38.8642 111.755 40.1123 111.018 41.3922C110.282 42.6403 109.609 43.84 109 44.9923C108.424 46.1122 108.087 47.0403 107.991 47.7763C108.504 47.2323 109.064 46.6083 109.673 45.904C110.314 45.168 110.922 44.4482 111.499 43.7442C112.107 43.0082 112.668 42.352 113.18 41.7762C113.693 41.168 114.093 40.7203 114.381 40.432C114.99 39.7923 115.711 39.0563 116.543 38.2242C117.376 37.3602 118.241 36.5603 119.138 35.8243C120.067 35.0563 120.996 34.4162 121.924 33.9043C122.853 33.3602 123.702 33.0882 124.471 33.0882C125.304 33.0882 125.992 33.3762 126.537 33.9522C127.113 34.4963 127.562 35.0723 127.882 35.6803C127.882 35.7442 127.754 35.84 127.497 35.9683C127.273 36.0642 126.937 36.3682 126.489 36.88C126.04 37.4563 125.528 38.2562 124.951 39.2802C124.407 40.2723 123.862 41.3602 123.318 42.5442C122.805 43.696 122.373 44.88 122.021 46.0962C121.668 47.3122 121.492 48.4163 121.492 49.4083C121.492 50.208 121.588 50.7202 121.78 50.944C122.004 51.1682 122.309 51.2802 122.693 51.2802C123.045 51.2802 123.414 51.2003 123.798 51.0403C124.182 50.8802 124.487 50.8 124.711 50.8C124.839 50.8642 124.935 51.0082 124.999 51.2323C125.095 51.4242 125.143 51.6002 125.143 51.7602C124.887 51.984 124.583 52.2082 124.231 52.4322C123.878 52.6562 123.51 52.864 123.125 53.0562C122.741 53.2482 122.357 53.4083 121.972 53.5361C121.62 53.6642 121.3 53.7283 121.011 53.7283C120.083 53.7283 119.314 53.5843 118.705 53.2963C118.129 53.0402 117.664 52.6883 117.312 52.2403C116.992 51.7923 116.767 51.2642 116.639 50.6562C116.511 50.0163 116.447 49.3442 116.447 48.6402C116.447 48.2563 116.479 47.8243 116.543 47.3443C116.607 46.8642 116.736 46.3043 116.928 45.6642C117.12 44.9923 117.392 44.2082 117.744 43.3122C118.097 42.3842 118.545 41.2803 119.09 40.0002C119.026 40.0002 118.593 40.2242 117.792 40.6723C116.992 41.1203 116.127 41.8082 115.198 42.7362C113.693 44.1762 112.331 45.6003 111.114 47.0082C109.929 48.4163 108.712 49.9841 107.463 51.7122C106.758 52.7043 106.134 53.5362 105.589 54.2082C105.077 54.9123 104.628 55.3763 104.244 55.6002C103.571 55.2163 103.075 54.6722 102.755 53.9682C102.435 53.2963 102.194 52.5922 102.034 51.8562C102.034 51.2482 102.114 50.4803 102.274 49.5523C102.466 48.6242 102.707 47.6002 102.995 46.4803C103.315 45.3282 103.699 44.128 104.148 42.8802C104.596 41.6322 105.093 40.3843 105.637 39.1362C106.855 36.3202 107.959 34.1122 108.952 32.5122C109.977 30.9123 110.618 30.0483 110.874 29.92Z" fill="#0E2E93"/>
</svg>
