<svg width="41" height="74" viewBox="0 0 41 74" fill="none" xmlns="http://www.w3.org/2000/svg">
<path d="M18.349 50.7396C18.349 49.5881 18.6348 47.9892 19.2062 45.9425C19.8093 43.8958 20.5871 41.6571 21.5395 39.2265C22.4919 36.7961 23.5713 34.2857 24.7776 31.6951C25.984 29.1049 27.1902 26.6903 28.3966 24.4517C29.6347 22.2131 30.8093 20.2783 31.9205 18.6473C33.0633 17.0163 34.0316 15.913 34.8253 15.3373C35.2697 15.3693 35.7459 15.5612 36.2538 15.913C36.7936 16.2647 37.2857 16.6965 37.7301 17.2082C38.1745 17.6879 38.5397 18.1995 38.8252 18.7432C39.1823 19.3349 39.6786 19.8865 39.6786 20.3342C38.2497 21.4855 36.4125 22.8687 34.9204 24.6916C33.4603 26.4824 32.0633 28.4652 30.7301 30.64C29.3966 32.7826 28.1585 35.0693 27.0157 37.4996C25.9046 39.8982 24.9681 42.2648 24.2062 44.5993C25.2221 42.8404 26.2856 41.2414 27.3968 39.8024C28.5078 38.3631 29.6188 37.132 30.7301 36.1086C31.8411 35.085 32.9206 34.3017 33.968 33.7579C35.0475 33.1822 36.0634 32.8784 37.0158 32.8466C38.4126 33.87 39.1109 35.2292 39.1109 36.924C39.1109 37.9474 38.9046 38.9867 38.492 40.0421C38.0791 41.0655 37.5237 42.025 36.8254 42.9205C36.1585 43.7839 35.3809 44.5355 34.4919 45.1749C33.6348 45.7825 32.7301 46.1822 31.7775 46.3742C32.0951 47.4936 32.492 48.6288 32.9682 49.7801C33.4759 50.9313 34.0633 52.0508 34.7299 53.1379C35.4283 54.2254 36.2062 55.2327 37.0635 56.1602C37.9523 57.0877 38.9523 57.871 40.0633 58.5107C39.9047 58.8306 39.6666 59.1504 39.349 59.4703C39.0315 59.7898 38.6506 60.0619 38.2062 60.2856C37.7618 60.5414 37.2698 60.7334 36.73 60.8612C36.2221 61.0212 35.7141 61.1013 35.2061 61.1013C34.3491 61.1013 33.5395 60.6696 32.7775 59.8059C32.0474 58.9424 31.3808 57.6954 30.7777 56.0643C30.3016 54.7532 29.841 53.186 29.3966 51.363C28.9522 49.5403 28.5555 47.6375 28.2061 45.6546C28.6505 45.3668 29.2062 44.9511 29.8728 44.4073C30.5396 43.8317 31.238 43.1762 31.9682 42.4407C34.7617 39.7223 36.1585 37.3717 36.1585 35.3889C36.1585 35.1331 35.984 35.0052 35.6349 35.0052C34.9998 35.0372 34.2538 35.3411 33.3967 35.9167C32.5395 36.4923 31.6189 37.2919 30.6347 38.3153C29.6824 39.3386 28.6982 40.5379 27.6823 41.9129C26.6981 43.2881 25.7459 44.7752 24.8252 46.3742C24.4443 47.0139 23.3094 48.8168 23.3094 48.8168C23.3094 48.8168 19.5395 55.1208 19.3491 54.9609C19.0633 54.7372 18.8252 54.2574 18.6348 53.5219C18.4443 52.7863 18.349 51.8588 18.349 50.7396Z" fill="#0E2E93"/>
<path d="M20.1741 54.3169C20.0438 54.5839 19.0635 56 18.2381 56C17.2223 55.8721 16.2381 55.6163 15.2857 55.2324C14.3651 54.8488 13.6826 54.385 13.2381 53.8414C12.9841 52.2742 12.7778 50.8352 12.6191 49.524C12.4603 48.2129 12.3334 46.9816 12.2381 45.8303C12.1429 44.6471 12.0794 43.5276 12.0476 42.4722C12.0159 41.385 12 40.2976 12 39.2105C12 37.7712 12.0159 36.2523 12.0476 34.653C12.0794 33.0541 12.1111 31.3593 12.1429 29.5683C12.2064 27.7454 12.254 25.8106 12.2857 23.7638C12.3175 21.6851 12.3334 19.4305 12.3334 17C12.7461 17 13.3651 17.1279 14.1905 17.3838C15.0159 17.6076 15.8254 17.8794 16.6191 18.1993C17.4445 18.5191 18.1746 18.8548 18.8095 19.2066C19.4445 19.5264 19.7937 19.7983 19.8572 20.0221C19.5397 20.9176 19.254 22.0849 19 23.524C18.7778 24.9631 18.5873 26.5621 18.4286 28.321C18.3016 30.0799 18.2064 31.9349 18.1429 33.8857C18.0794 35.8363 18.0476 37.7712 18.0476 39.69C18.0476 41.1293 18.0635 42.4244 18.0952 43.5756C18.127 44.6948 18.1588 45.7185 18.1905 46.6457C18.254 47.5412 18.3334 48.3886 18.4286 49.1882C18.5238 49.9558 18.6349 50.7233 18.7619 51.4909C19.6508 48.7725 20.6191 46.0541 21.6667 43.3359C22.7461 40.6175 23.8413 38.0112 24.9524 35.5165C26.0953 32.9903 27.2223 30.6395 28.3333 28.4649C29.4445 26.2903 30.4922 24.4034 31.4761 22.8044C32.492 21.1734 33.397 19.8942 34.1905 18.9668C34.9842 18.0074 35.6349 17.4957 36.1429 17.4317C36.4922 17.4957 36.8571 17.6396 37.2382 17.8635C37.6509 18.0553 38.2068 17.9863 38.5561 18.2741C38.8166 18.6746 39.1086 19.1229 39.3381 19.4756C39.5988 19.876 39.8414 20.246 40 20.5978C38.8254 21.0135 37.5555 21.9889 36.1905 23.524C34.8571 25.059 33.508 26.9139 32.143 29.0886C30.7777 31.2311 29.4445 33.5819 28.1428 36.1401C26.8729 38.6666 25.7143 41.145 24.6667 43.5756C23.6508 46.0063 24.3459 47.1084 23.1726 48.9773C21.9741 50.8862 20.1741 54.3169 20.1741 54.3169Z" fill="#0E2E93"/>
</svg>
