<svg width="128" height="73" viewBox="0 0 128 73" fill="none" xmlns="http://www.w3.org/2000/svg">
<path d="M17.7437 49.7036C17.7437 48.5668 18.0295 46.9886 18.6013 44.9683C19.205 42.948 19.9834 40.7382 20.9365 38.339C21.8897 35.94 22.9699 33.4619 24.1772 30.9048C25.3843 28.348 26.5915 25.9646 27.7987 23.7549C29.0378 21.5451 30.2133 19.6353 31.3254 18.0254C32.4691 16.4154 33.4381 15.3263 34.2324 14.7581C34.6771 14.7897 35.1537 14.9791 35.662 15.3263C36.2021 15.6736 36.6947 16.0997 37.1394 16.6048C37.5841 17.0783 37.9497 17.5834 38.2354 18.1201C38.5927 18.7041 39.0894 19.2486 39.0894 19.6906C37.6594 20.827 35.8208 22.1923 34.3276 23.9916C32.8664 25.7594 31.4683 27.7166 30.1341 29.8633C28.7996 31.9782 27.5604 34.2354 26.4168 36.6344C25.3049 39.002 24.3678 41.338 23.6052 43.6424C24.6219 41.9062 25.6862 40.3278 26.7983 38.9074C27.9101 37.4866 29.022 36.2716 30.1341 35.2614C31.246 34.2509 32.3263 33.4777 33.3744 32.9409C34.4547 32.3727 35.4714 32.0728 36.4246 32.0415C37.8224 33.0517 38.5213 34.3933 38.5213 36.0662C38.5213 37.0764 38.3148 38.1023 37.902 39.1441C37.4887 40.1542 36.933 41.1014 36.234 41.9853C35.5667 42.8376 34.7884 43.5794 33.8987 44.2107C33.041 44.8104 32.1357 45.2049 31.1823 45.3944C31.5001 46.4995 31.8974 47.62 32.374 48.7564C32.882 49.8927 33.47 50.9977 34.137 52.0708C34.836 53.1443 35.6144 54.1387 36.4723 55.0541C37.3617 55.9697 38.3626 56.7428 39.4744 57.3743C39.3157 57.69 39.0774 58.0057 38.7596 58.3215C38.4418 58.6369 38.0607 58.9055 37.616 59.1263C37.1711 59.3787 36.6787 59.5683 36.1386 59.6946C35.6303 59.8524 35.122 59.9314 34.6135 59.9314C33.7558 59.9314 32.9457 59.5053 32.1831 58.6527C31.4524 57.8005 30.7853 56.5695 30.1817 54.9596C29.7053 53.6653 29.2443 52.1183 28.7996 50.3188C28.3548 48.5196 27.9578 46.6415 27.6083 44.6842C28.053 44.4001 28.609 43.9897 29.2761 43.4529C29.9434 42.8847 30.6424 42.2377 31.3731 41.5116C34.1688 38.8284 35.5667 36.5082 35.5667 34.5508C35.5667 34.2984 35.392 34.1722 35.0427 34.1722C34.4071 34.2037 33.6604 34.5036 32.8027 35.0718C31.9448 35.6401 31.0235 36.4294 30.0387 37.4396C29.0856 38.4497 28.1007 39.6335 27.084 40.9906C26.0991 42.3482 25.146 43.8161 24.2247 45.3944C23.8435 46.0258 22.7077 47.8056 22.7077 47.8056C22.7077 47.8056 18.935 54.0282 18.7444 53.8703C18.4584 53.6495 18.2201 53.1758 18.0295 52.4498C17.8389 51.7237 17.7437 50.8083 17.7437 49.7036Z" fill="#0E2E93"/>
<path d="M19.57 53.2346C19.4395 53.4982 18.4585 54.896 17.6326 54.896C16.6159 54.7697 15.6309 54.5173 14.6779 54.1384C13.7566 53.7596 13.0735 53.3018 12.6287 52.7653C12.3745 51.2184 12.168 49.7978 12.0092 48.5036C11.8503 47.2094 11.7233 45.9939 11.6279 44.8575C11.5326 43.6895 11.4691 42.5845 11.4373 41.5428C11.4055 40.4696 11.3896 39.3963 11.3896 38.3232C11.3896 36.9025 11.4055 35.4032 11.4373 33.8245C11.4691 32.2463 11.5009 30.5733 11.5326 28.8055C11.5962 27.0061 11.6438 25.0962 11.6756 23.0759C11.7074 21.024 11.7233 18.7985 11.7233 16.3994C12.1363 16.3994 12.7558 16.5256 13.5818 16.7782C14.4078 16.9991 15.218 17.2675 16.0123 17.5831C16.8382 17.8988 17.5689 18.2303 18.2044 18.5775C18.8398 18.8932 19.1893 19.1615 19.2528 19.3825C18.9351 20.2664 18.6492 21.4186 18.395 22.8391C18.1726 24.2597 17.982 25.8381 17.8232 27.5743C17.696 29.3105 17.6008 31.1416 17.5372 33.0672C17.4737 34.9925 17.4419 36.9025 17.4419 38.7965C17.4419 40.2172 17.4577 41.4956 17.4895 42.632C17.5214 43.7367 17.5531 44.7472 17.5849 45.6625C17.6484 46.5464 17.7278 47.3828 17.8232 48.1721C17.9184 48.9297 18.0296 49.6875 18.1567 50.4451C19.0463 47.7617 20.0153 45.0785 21.0637 42.3954C22.1439 39.712 23.24 37.1394 24.3519 34.6768C25.4957 32.1833 26.6236 29.8628 27.7353 27.7163C28.8474 25.5697 29.896 23.7072 30.8806 22.1289C31.8973 20.5189 32.803 19.2562 33.597 18.3408C34.3913 17.3937 35.0426 16.8887 35.5509 16.8255C35.9006 16.8887 36.2657 17.0307 36.6471 17.2517C37.06 17.4411 37.6163 17.373 37.966 17.657C38.2267 18.0523 38.5189 18.4948 38.7486 18.843C39.0096 19.2383 39.2523 19.6035 39.411 19.9507C38.2356 20.3611 36.9646 21.3239 35.5986 22.8391C34.2641 24.3544 32.914 26.1853 31.548 28.3319C30.1817 30.4468 28.8474 32.7673 27.5447 35.2924C26.2739 37.7864 25.1145 40.2327 24.0661 42.632C23.0494 45.0313 23.745 46.1191 22.5707 47.964C21.3713 49.8481 19.57 53.2346 19.57 53.2346Z" fill="#0E2E93"/>
<path d="M56.3837 33.3513C56.6991 33.3513 57.0618 33.4146 57.4717 33.5407C57.9131 33.6354 58.3074 33.7774 58.6544 33.9668C59.0014 34.1247 59.285 34.2984 59.5058 34.4876C59.7581 34.6771 59.8843 34.8507 59.8843 35.0086C59.2534 36.3346 58.67 37.6762 58.134 39.0334C57.5978 40.3593 57.1405 41.6376 56.762 42.8689C56.3837 44.1002 56.0841 45.2524 55.8634 46.3255C55.6741 47.3988 55.5795 48.3302 55.5795 49.1193C55.5795 50.0032 55.6741 50.745 55.8634 51.3448C56.0527 51.913 56.3678 52.3234 56.8094 52.5761C56.4308 52.8286 55.9421 53.0335 55.3431 53.1915C54.7437 53.3493 54.2077 53.4284 53.7345 53.4284C52.0314 53.4284 51.1801 52.2604 51.1801 49.9244C51.1801 48.1249 51.7794 45.6626 52.9778 42.5374C52.3468 43.9895 51.6217 45.3627 50.8018 46.657C49.9817 47.9196 49.1458 49.0405 48.2944 50.0189C47.443 50.9975 46.5757 51.8027 45.6927 52.434C44.8413 53.0335 44.0527 53.3967 43.3274 53.523C42.1607 53.4597 41.2145 52.9074 40.4891 51.8655C39.7638 50.7925 39.4011 49.4349 39.4011 47.7934C39.4011 46.0255 39.7794 44.1632 40.5364 42.2061C41.2933 40.2488 42.2552 38.4335 43.4221 36.7606C44.6205 35.0875 45.9135 33.6987 47.301 32.5935C48.6887 31.4572 50.0291 30.8574 51.3221 30.7944C51.6373 30.889 51.9843 31.0786 52.3628 31.3627C52.7727 31.6466 53.1511 31.9782 53.4981 32.3569C53.8764 32.7356 54.1918 33.1304 54.4441 33.5407C54.6965 33.9195 54.8384 34.251 54.8698 34.5351C53.6084 34.7246 52.2997 35.3402 50.9437 36.3816C49.619 37.4235 48.405 38.6863 47.301 40.17C46.2287 41.6221 45.3457 43.1846 44.6521 44.8575C43.9581 46.5307 43.6114 48.0933 43.6114 49.5454C43.6114 50.1452 43.8318 50.5242 44.2735 50.682C45.188 50.4926 46.2447 49.7191 47.443 48.3615C48.6414 46.9727 50.0921 44.842 51.795 41.9692C52.1104 41.401 52.4574 40.7695 52.8357 40.0752C53.2458 39.3807 53.6558 38.6546 54.0657 37.897C54.4757 37.1394 54.8698 36.3816 55.2484 35.6243C55.6582 34.8349 56.0367 34.0773 56.3837 33.3513ZM64.2894 34.3455C64.1318 34.1564 63.99 33.7615 63.8638 33.162C63.7377 32.5307 63.6745 31.994 63.6745 31.5521C64.4947 31.6151 65.283 31.6783 66.0398 31.7413C66.7968 31.7729 67.4905 31.8046 68.1214 31.8362C68.5943 30.889 69.099 29.9576 69.635 29.0424C70.2028 28.0953 70.7387 27.2429 71.2434 26.4853C71.7797 25.6961 72.2685 25.0332 72.7098 24.4966C73.183 23.9599 73.5457 23.6127 73.798 23.4548C74.1134 23.4548 74.5075 23.518 74.9804 23.6442C75.4851 23.7389 75.9897 23.881 76.4944 24.0704C76.999 24.2282 77.4563 24.4019 77.8661 24.5913C78.2761 24.7807 78.5601 24.9701 78.7178 25.1595C77.7714 26.3591 76.9515 27.4796 76.2578 28.5214C75.5954 29.5316 74.8701 30.6996 74.0818 32.0254C74.7125 32.0254 75.3434 32.0095 75.974 31.9782C76.6361 31.9467 77.2985 31.8992 77.9607 31.8362C78.1184 31.994 78.2447 32.1991 78.3392 32.4516C78.4338 32.6726 78.4811 32.9093 78.4811 33.162C76.936 33.7302 75.0594 34.0456 72.852 34.1089C72.0634 35.6243 71.3537 37.1394 70.7231 38.6546C70.1238 40.1384 69.6034 41.5746 69.1621 42.9636C68.752 44.3526 68.421 45.6626 68.1685 46.8936C67.9478 48.1249 67.8375 49.2296 67.8375 50.2085C67.8375 51.5973 68.3578 52.3707 69.3985 52.5286C70.3447 52.4024 71.2434 52.1655 72.0948 51.8184C72.9465 51.4711 73.7034 51.0291 74.3655 50.4926C74.5548 50.7766 74.6653 51.0133 74.6968 51.2027C74.5077 51.4868 74.1762 51.8184 73.7034 52.1971C73.2617 52.5761 72.773 52.939 72.237 53.2863C71.7007 53.665 71.1804 53.9807 70.6757 54.2332C70.1712 54.4856 69.7927 54.628 69.5404 54.6594C68.752 54.628 67.9637 54.4543 67.1751 54.1387C66.3867 53.8228 65.6615 53.4284 64.9991 52.9547C64.3684 52.4812 63.8481 51.9605 63.4381 51.3923C63.028 50.7925 62.8231 50.2085 62.8231 49.6403C62.8231 48.8827 62.9177 47.9355 63.107 46.7991C63.3278 45.6311 63.6274 44.3685 64.0058 43.0109C64.3841 41.6535 64.8257 40.233 65.3301 38.7493C65.8348 37.2655 66.3867 35.7976 66.9861 34.3455H64.2894ZM90.9964 51.4395C90.3971 50.9346 89.9873 50.3031 89.7664 49.5454C89.5771 48.7877 89.4825 48.1407 89.4825 47.6042C89.4825 46.9411 89.5615 46.3729 89.719 45.8994C89.5931 45.8994 89.3091 46.1521 88.8675 46.657C88.4262 47.1622 87.9371 47.762 87.4011 48.4565C86.8964 49.1508 86.392 49.8295 85.8874 50.4926C85.3828 51.1554 85.0044 51.6447 84.752 51.9605C84.3422 52.4024 83.9478 52.7495 83.5695 53.0022C83.2225 53.2546 82.9387 53.3967 82.7178 53.4284C82.2134 53.3967 81.6771 53.2863 81.1097 53.0968C80.5734 52.939 80.0531 52.7023 79.5487 52.3867C79.0754 52.0708 78.6497 51.6922 78.2711 51.2502C77.9242 50.8083 77.6878 50.3031 77.5617 49.7348C77.5617 48.851 77.5775 48.1249 77.6091 47.5567C77.6721 46.9886 77.7824 46.3729 77.9401 45.7101C78.224 44.5106 78.6338 43.153 79.1701 41.6376C79.7377 40.1227 80.3841 38.6388 81.1097 37.1867C81.8348 35.7031 82.6391 34.33 83.5221 33.0672C84.4366 31.7729 85.3985 30.7627 86.4077 30.0367C86.6915 30.0367 87.0227 30.0684 87.4011 30.1314C87.7797 30.163 88.158 30.242 88.5365 30.3683C88.9465 30.4946 89.3248 30.6524 89.6718 30.8415C90.0504 30.9995 90.3655 31.2206 90.6178 31.5046C90.334 31.8204 89.6087 32.8776 88.4418 34.6771C87.3065 36.4766 86.0294 39.065 84.6101 42.4427C84.4524 42.7901 84.2632 43.2951 84.0424 43.9581C83.8217 44.6209 83.6011 45.3154 83.3803 46.0414C83.1594 46.7675 82.9701 47.4776 82.8124 48.1724C82.6863 48.8667 82.6231 49.4192 82.6231 49.8295C82.6231 50.0822 82.6547 50.2715 82.7178 50.3976C82.8124 50.5242 82.8914 50.6187 82.9545 50.682C83.4274 50.4926 84.0268 49.9716 84.752 49.1193C85.4775 48.267 86.4867 46.9569 87.7797 45.1891C88.0948 44.7472 88.4578 44.2422 88.8675 43.674C89.3091 43.1055 89.7505 42.506 90.1921 41.8747C90.6338 41.2116 91.0435 40.5329 91.4221 39.8386C91.8321 39.1441 92.1632 38.4494 92.4157 37.755C92.5418 37.3763 92.6992 36.9343 92.8885 36.4291C93.1093 35.8926 93.3617 35.3402 93.6455 34.7717C93.9607 34.2036 94.3077 33.6354 94.6862 33.0672C95.0961 32.4674 95.5691 31.915 96.1054 31.41C96.5152 31.41 96.9568 31.4572 97.4297 31.5521C97.9028 31.6466 98.3445 31.7729 98.7544 31.9307C99.196 32.057 99.5744 32.2148 99.8897 32.4044C100.205 32.5622 100.441 32.7356 100.599 32.9251C100.032 34.3142 99.4008 35.6873 98.7071 37.0447C98.0131 38.4022 97.367 39.7436 96.7677 41.0695C96.1685 42.3637 95.6638 43.6582 95.2537 44.9525C94.844 46.2466 94.6388 47.5093 94.6388 48.7406C94.6388 49.4034 94.6862 49.9874 94.7808 50.4926C94.907 50.9661 95.033 51.3765 95.1591 51.7236C95.2853 52.0393 95.3958 52.3076 95.4904 52.5286C95.6167 52.7495 95.6794 52.939 95.6794 53.0968C95.6794 53.1285 95.6478 53.1756 95.5851 53.2388C95.5535 53.2706 95.522 53.2863 95.4904 53.2863C95.2697 53.2863 94.9857 53.2388 94.6388 53.1443C94.2921 53.0494 93.8977 52.9074 93.4563 52.7181C93.0462 52.5603 92.6205 52.3707 92.1788 52.1496C91.7691 51.9288 91.3748 51.6922 90.9964 51.4395ZM109.168 29.5157C109.988 29.7685 110.761 30.3366 111.486 31.2206C112.212 32.0728 112.748 33.0197 113.095 34.0615C112.748 34.914 112.212 35.9397 111.486 37.1394C110.761 38.3389 110.036 39.5702 109.31 40.8328C108.585 42.0641 107.923 43.2476 107.323 44.3843C106.756 45.489 106.425 46.4046 106.33 47.1307C106.835 46.594 107.387 45.9784 107.986 45.2837C108.617 44.5576 109.216 43.8475 109.783 43.153C110.383 42.427 110.935 41.7797 111.439 41.2116C111.944 40.6117 112.338 40.17 112.622 39.8856C113.221 39.2545 113.93 38.5285 114.75 37.7076C115.57 36.8553 116.422 36.0662 117.305 35.3402C118.219 34.5826 119.134 33.9511 120.049 33.4461C120.963 32.9093 121.799 32.641 122.556 32.641C123.376 32.641 124.054 32.9251 124.59 33.4933C125.158 34.0301 125.599 34.5983 125.915 35.1981C125.915 35.2611 125.788 35.3557 125.536 35.4822C125.315 35.5768 124.984 35.8767 124.543 36.3816C124.101 36.9501 123.596 37.7392 123.029 38.7493C122.493 39.7281 121.957 40.8012 121.42 41.9692C120.916 43.1055 120.49 44.2735 120.143 45.4732C119.796 46.6728 119.623 47.762 119.623 48.7406C119.623 49.5295 119.718 50.0347 119.907 50.2556C120.127 50.4767 120.427 50.5872 120.805 50.5872C121.152 50.5872 121.515 50.5084 121.894 50.3506C122.272 50.1926 122.572 50.1135 122.792 50.1135C122.918 50.1768 123.013 50.3188 123.076 50.54C123.171 50.7292 123.218 50.9028 123.218 51.0607C122.966 51.2815 122.666 51.5026 122.319 51.7236C121.972 51.9446 121.61 52.1496 121.231 52.3392C120.853 52.5286 120.474 52.6866 120.096 52.8127C119.749 52.9389 119.434 53.0022 119.15 53.0022C118.235 53.0022 117.479 52.8602 116.879 52.5761C116.312 52.3234 115.854 51.9763 115.507 51.5343C115.192 51.0924 114.971 50.5714 114.845 49.9716C114.719 49.3404 114.656 48.6773 114.656 47.9828C114.656 47.6042 114.687 47.178 114.75 46.7045C114.813 46.2308 114.94 45.6785 115.129 45.0471C115.318 44.3843 115.586 43.6107 115.933 42.7268C116.28 41.8114 116.721 40.7224 117.258 39.4596C117.195 39.4596 116.769 39.6806 115.98 40.1227C115.192 40.5646 114.341 41.2432 113.426 42.1586C111.944 43.5792 110.603 44.9841 109.405 46.3729C108.238 47.762 107.04 49.3087 105.81 51.0133C105.116 51.9921 104.501 52.8127 103.965 53.4756C103.46 54.1702 103.019 54.628 102.64 54.8488C101.978 54.4701 101.489 53.9333 101.174 53.2388C100.859 52.5761 100.622 51.8814 100.464 51.1554C100.464 50.5556 100.543 49.7981 100.701 48.8827C100.89 47.9671 101.127 46.9569 101.41 45.8522C101.726 44.7156 102.104 43.5317 102.546 42.3007C102.987 41.0695 103.476 39.8386 104.012 38.6073C105.211 35.8293 106.298 33.6512 107.276 32.0728C108.285 30.4946 108.916 29.6422 109.168 29.5157Z" fill="#0E2E93"/>
</svg>
