<svg width="128" height="73" viewBox="0 0 128 73" fill="none" xmlns="http://www.w3.org/2000/svg">
    <path d="M17.7436 49.7033C17.7436 48.5665 18.0294 46.9883 18.6013 44.968C19.205 42.9477 19.9834 40.7379 20.9364 38.3386C21.8896 35.9397 22.9698 33.4616 24.1771 30.9045C25.3842 28.3477 26.5914 25.9643 27.7987 23.7546C29.0377 21.5448 30.2133 19.635 31.3253 18.0251C32.469 16.4151 33.438 15.326 34.2323 14.7578C34.677 14.7894 35.1536 14.9788 35.662 15.326C36.2021 15.6733 36.6946 16.0994 37.1393 16.6045C37.584 17.078 37.9496 17.5831 38.2353 18.1198C38.5927 18.7038 39.0893 19.2483 39.0893 19.6902C37.6594 20.8267 35.8207 22.192 34.3276 23.9913C32.8663 25.7591 31.4683 27.7163 30.134 29.863C28.7996 31.9779 27.5604 34.2351 26.4167 36.6341C25.3048 39.0017 24.3677 41.3377 23.6051 43.6421C24.6218 41.9059 25.6862 40.3275 26.7982 38.9071C27.91 37.4863 29.0219 36.2713 30.134 35.2611C31.2459 34.2506 32.3262 33.4774 33.3744 32.9406C34.4547 32.3724 35.4714 32.0725 36.4246 32.0412C37.8223 33.0514 38.5213 34.393 38.5213 36.0659C38.5213 37.0761 38.3147 38.102 37.9019 39.1438C37.4887 40.1539 36.9329 41.1011 36.234 41.985C35.5666 42.8373 34.7884 43.5791 33.8987 44.2104C33.041 44.8101 32.1356 45.2046 31.1823 45.3941C31.5 46.4991 31.8973 47.6197 32.3739 48.7561C32.882 49.8924 33.4699 50.9974 34.137 52.0705C34.8359 53.144 35.6143 54.1384 36.4723 55.0538C37.3617 55.9694 38.3626 56.7425 39.4743 57.374C39.3156 57.6897 39.0773 58.0054 38.7596 58.3212C38.4417 58.6366 38.0606 58.9052 37.6159 59.126C37.1711 59.3784 36.6787 59.568 36.1386 59.6942C35.6302 59.8521 35.1219 59.9311 34.6134 59.9311C33.7557 59.9311 32.9456 59.505 32.183 58.6524C31.4523 57.8002 30.7853 56.5692 30.1817 54.9593C29.7052 53.665 29.2443 52.118 28.7996 50.3185C28.3547 48.5193 27.9577 46.6412 27.6082 44.6839C28.0529 44.3998 28.609 43.9894 29.276 43.4526C29.9434 42.8844 30.6423 42.2374 31.373 41.5113C34.1687 38.8281 35.5666 36.5079 35.5666 34.5505C35.5666 34.2981 35.3919 34.1719 35.0426 34.1719C34.407 34.2034 33.6604 34.5033 32.8027 35.0715C31.9447 35.6398 31.0234 36.4291 30.0386 37.4393C29.0856 38.4494 28.1006 39.6332 27.0839 40.9903C26.099 42.3479 25.1459 43.8158 24.2246 45.3941C23.8434 46.0255 22.7077 47.8053 22.7077 47.8053C22.7077 47.8053 18.9349 54.0279 18.7443 53.87C18.4583 53.6492 18.22 53.1755 18.0294 52.4495C17.8388 51.7234 17.7436 50.808 17.7436 49.7033Z" fill="#401AC3"/>
    <path d="M19.57 53.2347C19.4395 53.4982 18.4585 54.8961 17.6326 54.8961C16.6159 54.7698 15.6309 54.5174 14.6779 54.1384C13.7566 53.7596 13.0735 53.3019 12.6287 52.7654C12.3745 51.2184 12.168 49.7979 12.0092 48.5036C11.8503 47.2095 11.7233 45.994 11.6279 44.8576C11.5326 43.6896 11.4691 42.5846 11.4373 41.5428C11.4055 40.4697 11.3896 39.3964 11.3896 38.3232C11.3896 36.9026 11.4055 35.4032 11.4373 33.8246C11.4691 32.2463 11.5009 30.5734 11.5326 28.8056C11.5962 27.0061 11.6438 25.0963 11.6756 23.076C11.7074 21.0241 11.7233 18.7985 11.7233 16.3994C12.1363 16.3994 12.7558 16.5257 13.5818 16.7782C14.4078 16.9992 15.218 17.2675 16.0123 17.5832C16.8382 17.8989 17.5689 18.2303 18.2044 18.5776C18.8398 18.8933 19.1893 19.1616 19.2528 19.3825C18.9351 20.2664 18.6492 21.4187 18.395 22.8392C18.1726 24.2597 17.982 25.8381 17.8232 27.5743C17.696 29.3105 17.6008 31.1416 17.5372 33.0672C17.4737 34.9926 17.4419 36.9025 17.4419 38.7966C17.4419 40.2173 17.4577 41.4956 17.4895 42.6321C17.5214 43.7368 17.5531 44.7472 17.5849 45.6625C17.6484 46.5464 17.7278 47.3828 17.8232 48.1722C17.9184 48.9298 18.0296 49.6876 18.1567 50.4452C19.0463 47.7618 20.0153 45.0786 21.0637 42.3954C22.1439 39.7121 23.24 37.1394 24.3519 34.6769C25.4957 32.1833 26.6236 29.8628 27.7353 27.7164C28.8474 25.5698 29.896 23.7073 30.8806 22.1289C31.8973 20.519 32.803 19.2563 33.597 18.3408C34.3913 17.3938 35.0426 16.8887 35.5509 16.8256C35.9006 16.8887 36.2657 17.0308 36.6471 17.2517C37.06 17.4411 37.6163 17.3731 37.966 17.657C38.2267 18.0523 38.5189 18.4949 38.7486 18.8431C39.0096 19.2384 39.2523 19.6035 39.411 19.9508C38.2356 20.3611 36.9646 21.324 35.5986 22.8392C34.2641 24.3544 32.914 26.1854 31.548 28.332C30.1817 30.4468 28.8474 32.7673 27.5447 35.2925C26.2739 37.7864 25.1145 40.2328 24.0661 42.6321C23.0494 45.0313 23.745 46.1192 22.5707 47.964C21.3713 49.8482 19.57 53.2347 19.57 53.2347Z" fill="#401AC3"/>
    <path d="M56.3836 33.3515C56.699 33.3515 57.0617 33.4148 57.4716 33.5409C57.9131 33.6356 58.3073 33.7777 58.6543 33.9671C59.0013 34.1249 59.2849 34.2987 59.5057 34.4878C59.758 34.6773 59.8843 34.851 59.8843 35.0088C59.2533 36.3348 58.6699 37.6764 58.1339 39.0337C57.5977 40.3595 57.1404 41.6379 56.7619 42.8691C56.3836 44.1004 56.084 45.2526 55.8633 46.3258C55.674 47.3991 55.5794 48.3305 55.5794 49.1195C55.5794 50.0034 55.674 50.7452 55.8633 51.345C56.0526 51.9132 56.3677 52.3236 56.8093 52.5763C56.4307 52.8288 55.942 53.0338 55.343 53.1917C54.7436 53.3496 54.2076 53.4286 53.7344 53.4286C52.0313 53.4286 51.18 52.2606 51.18 49.9246C51.18 48.1251 51.7793 45.6629 52.9777 42.5377C52.3467 43.9898 51.6216 45.363 50.8017 46.6572C49.9816 47.9198 49.1457 49.0407 48.2943 50.0192C47.4429 50.9978 46.5756 51.8029 45.6926 52.4342C44.8413 53.0338 44.0526 53.3969 43.3273 53.5232C42.1606 53.4599 41.2144 52.9076 40.489 51.8658C39.7637 50.7927 39.401 49.4352 39.401 47.7937C39.401 46.0257 39.7793 44.1634 40.5364 42.2064C41.2932 40.249 42.2551 38.4337 43.422 36.7608C44.6204 35.0877 45.9134 33.6989 47.3009 32.5937C48.6886 31.4575 50.029 30.8577 51.322 30.7947C51.6373 30.8892 51.9842 31.0788 52.3627 31.3629C52.7726 31.6469 53.151 31.9785 53.498 32.3571C53.8763 32.7358 54.1917 33.1307 54.444 33.5409C54.6964 33.9197 54.8383 34.2512 54.8697 34.5353C53.6083 34.7248 52.2996 35.3404 50.9436 36.3819C49.6189 37.4237 48.4049 38.6866 47.3009 40.1702C46.2286 41.6224 45.3456 43.1848 44.652 44.8577C43.958 46.531 43.6113 48.0936 43.6113 49.5457C43.6113 50.1455 43.8317 50.5244 44.2734 50.6822C45.1879 50.4928 46.2446 49.7193 47.4429 48.3617C48.6413 46.9729 50.092 44.8422 51.7949 41.9695C52.1103 41.4012 52.4573 40.7697 52.8356 40.0754C53.2457 39.3809 53.6557 38.6549 54.0656 37.8972C54.4756 37.1396 54.8697 36.3819 55.2483 35.6245C55.6581 34.8352 56.0366 34.0776 56.3836 33.3515ZM64.2894 34.3457C64.1317 34.1566 63.9899 33.7617 63.8637 33.1622C63.7376 32.5309 63.6744 31.9942 63.6744 31.5523C64.4946 31.6153 65.2829 31.6786 66.0397 31.7416C66.7967 31.7731 67.4904 31.8048 68.1213 31.8364C68.5943 30.8892 69.0989 29.9579 69.6349 29.0427C70.2027 28.0955 70.7387 27.2432 71.2433 26.4856C71.7796 25.6964 72.2684 25.0335 72.7097 24.4968C73.1829 23.9602 73.5456 23.6129 73.7979 23.4551C74.1133 23.4551 74.5074 23.5182 74.9804 23.6445C75.485 23.7392 75.9896 23.8812 76.4943 24.0706C76.9989 24.2285 77.4562 24.4021 77.866 24.5915C78.276 24.7809 78.56 24.9703 78.7177 25.1597C77.7713 26.3593 76.9514 27.4798 76.2577 28.5217C75.5953 29.5318 74.8701 30.6998 74.0817 32.0257C74.7124 32.0257 75.3433 32.0097 75.9739 31.9785C76.636 31.9469 77.2984 31.8994 77.9606 31.8364C78.1183 31.9942 78.2446 32.1993 78.3391 32.4518C78.4337 32.6728 78.481 32.9096 78.481 33.1622C76.9359 33.7305 75.0593 34.0459 72.8519 34.1091C72.0633 35.6245 71.3536 37.1396 70.723 38.6549C70.1237 40.1387 69.6033 41.5749 69.162 42.9638C68.7519 44.3528 68.4209 45.6629 68.1684 46.8939C67.9477 48.1251 67.8374 49.2299 67.8374 50.2087C67.8374 51.5976 68.3577 52.371 69.3984 52.5288C70.3446 52.4027 71.2433 52.1658 72.0947 51.8187C72.9464 51.4713 73.7033 51.0294 74.3654 50.4928C74.5547 50.7768 74.6653 51.0136 74.6967 51.203C74.5076 51.4871 74.1761 51.8187 73.7033 52.1974C73.2616 52.5763 72.7729 52.9392 72.2369 53.2866C71.7006 53.6652 71.1803 53.9809 70.6756 54.2335C70.1711 54.4859 69.7926 54.6282 69.5403 54.6596C68.7519 54.6282 67.9636 54.4546 67.175 54.1389C66.3867 53.8231 65.6614 53.4286 64.999 52.955C64.3684 52.4815 63.848 51.9607 63.438 51.3925C63.0279 50.7927 62.823 50.2087 62.823 49.6405C62.823 48.8829 62.9176 47.9357 63.1069 46.7993C63.3277 45.6313 63.6273 44.3687 64.0057 43.0112C64.384 41.6538 64.8256 40.2332 65.33 38.7496C65.8347 37.2657 66.3867 35.7979 66.986 34.3457H64.2894ZM90.9963 51.4397C90.397 50.9348 89.9872 50.3033 89.7663 49.5457C89.577 48.7879 89.4824 48.1409 89.4824 47.6044C89.4824 46.9414 89.5614 46.3731 89.7189 45.8996C89.593 45.8996 89.309 46.1523 88.8674 46.6572C88.4261 47.1625 87.937 47.7622 87.401 48.4567C86.8964 49.1511 86.392 49.8298 85.8873 50.4928C85.3827 51.1556 85.0043 51.6449 84.7519 51.9607C84.3421 52.4027 83.9477 52.7498 83.5694 53.0025C83.2224 53.2549 82.9386 53.3969 82.7177 53.4286C82.2133 53.3969 81.677 53.2866 81.1096 53.097C80.5733 52.9392 80.053 52.7026 79.5486 52.3869C79.0753 52.0711 78.6496 51.6924 78.2711 51.2505C77.9241 50.8085 77.6877 50.3033 77.5616 49.7351C77.5616 48.8512 77.5774 48.1251 77.609 47.5569C77.672 46.9888 77.7823 46.3731 77.94 45.7104C78.224 44.5108 78.6337 43.1532 79.17 41.6379C79.7376 40.1229 80.384 38.6391 81.1096 37.187C81.8347 35.7033 82.639 34.3302 83.522 33.0674C84.4366 31.7731 85.3984 30.763 86.4076 30.0369C86.6914 30.0369 87.0226 30.0686 87.401 30.1316C87.7796 30.1632 88.1579 30.2422 88.5364 30.3685C88.9464 30.4948 89.3247 30.6526 89.6717 30.8417C90.0503 30.9997 90.3654 31.2208 90.6177 31.5048C90.3339 31.8206 89.6086 32.8779 88.4417 34.6773C87.3064 36.4768 86.0293 39.0652 84.6101 42.443C84.4524 42.7904 84.2631 43.2953 84.0423 43.9584C83.8216 44.6211 83.601 45.3156 83.3802 46.0417C83.1593 46.7677 82.97 47.4779 82.8123 48.1726C82.6862 48.867 82.6231 49.4194 82.6231 49.8298C82.6231 50.0825 82.6547 50.2717 82.7177 50.3979C82.8123 50.5244 82.8913 50.619 82.9544 50.6822C83.4273 50.4928 84.0267 49.9718 84.7519 49.1195C85.4774 48.2672 86.4866 46.9571 87.7796 45.1894C88.0947 44.7474 88.4577 44.2425 88.8674 43.6742C89.309 43.1057 89.7504 42.5062 90.192 41.8749C90.6337 41.2118 91.0434 40.5331 91.422 39.8388C91.832 39.1443 92.1631 38.4497 92.4156 37.7552C92.5417 37.3765 92.6991 36.9346 92.8884 36.4293C93.1093 35.8928 93.3616 35.3404 93.6454 34.7719C93.9606 34.2038 94.3076 33.6356 94.6861 33.0674C95.096 32.4676 95.569 31.9152 96.1053 31.4102C96.5151 31.4102 96.9567 31.4575 97.4297 31.5523C97.9027 31.6469 98.3444 31.7731 98.7543 31.931C99.1959 32.0572 99.5743 32.2151 99.8896 32.4046C100.205 32.5625 100.441 32.7358 100.599 32.9253C100.032 34.3145 99.4007 35.6875 98.707 37.0449C98.013 38.4025 97.3669 39.7438 96.7676 41.0698C96.1684 42.3639 95.6637 43.6585 95.2537 44.9527C94.8439 46.2469 94.6387 47.5096 94.6387 48.7408C94.6387 49.4036 94.6861 49.9876 94.7807 50.4928C94.907 50.9664 95.0329 51.3767 95.159 51.7238C95.2853 52.0395 95.3957 52.3078 95.4903 52.5288C95.6166 52.7498 95.6793 52.9392 95.6793 53.097C95.6793 53.1287 95.6478 53.1758 95.585 53.2391C95.5534 53.2708 95.5219 53.2866 95.4903 53.2866C95.2696 53.2866 94.9857 53.2391 94.6387 53.1445C94.292 53.0497 93.8976 52.9076 93.4562 52.7184C93.0461 52.5605 92.6204 52.371 92.1787 52.1499C91.769 51.929 91.3747 51.6924 90.9963 51.4397ZM109.168 29.5159C109.988 29.7687 110.761 30.3368 111.486 31.2208C112.212 32.073 112.748 33.0199 113.095 34.0618C112.748 34.9142 112.212 35.9399 111.486 37.1396C110.761 38.3392 110.036 39.5705 109.31 40.833C108.585 42.0643 107.923 43.2478 107.323 44.3845C106.756 45.4892 106.425 46.4048 106.33 47.1309C106.835 46.5942 107.387 45.9787 107.986 45.2839C108.616 44.5579 109.216 43.8477 109.783 43.1532C110.383 42.4272 110.935 41.7799 111.439 41.2118C111.944 40.6119 112.338 40.1702 112.622 39.8859C113.221 39.2548 113.93 38.5287 114.75 37.7078C115.57 36.8555 116.422 36.0665 117.305 35.3404C118.219 34.5828 119.134 33.9513 120.049 33.4464C120.963 32.9096 121.799 32.6412 122.556 32.6412C123.376 32.6412 124.054 32.9253 124.59 33.4936C125.158 34.0304 125.599 34.5986 125.914 35.1984C125.914 35.2613 125.788 35.3559 125.536 35.4825C125.315 35.577 124.984 35.8769 124.543 36.3819C124.101 36.9504 123.596 37.7394 123.029 38.7496C122.493 39.7283 121.957 40.8015 121.42 41.9695C120.916 43.1057 120.49 44.2737 120.143 45.4735C119.796 46.673 119.623 47.7622 119.623 48.7408C119.623 49.5297 119.718 50.035 119.907 50.2558C120.127 50.4769 120.427 50.5874 120.805 50.5874C121.152 50.5874 121.515 50.5086 121.894 50.3508C122.272 50.1928 122.572 50.1138 122.792 50.1138C122.918 50.177 123.013 50.3191 123.076 50.5402C123.171 50.7295 123.218 50.9031 123.218 51.0609C122.966 51.2818 122.666 51.5029 122.319 51.7238C121.972 51.9448 121.61 52.1499 121.231 52.3394C120.853 52.5288 120.474 52.6868 120.096 52.8129C119.749 52.9392 119.434 53.0025 119.15 53.0025C118.235 53.0025 117.478 52.8604 116.879 52.5763C116.312 52.3236 115.854 51.9765 115.507 51.5346C115.192 51.0926 114.971 50.5716 114.845 49.9718C114.719 49.3406 114.656 48.6776 114.656 47.9831C114.656 47.6044 114.687 47.1782 114.75 46.7047C114.813 46.2311 114.94 45.6788 115.129 45.0473C115.318 44.3845 115.586 43.611 115.933 42.7271C116.28 41.8116 116.721 40.7227 117.258 39.4598C117.195 39.4598 116.769 39.6808 115.98 40.1229C115.192 40.5648 114.341 41.2434 113.426 42.1589C111.944 43.5794 110.603 44.9843 109.405 46.3731C108.238 47.7622 107.04 49.3089 105.81 51.0136C105.116 51.9923 104.501 52.8129 103.965 53.4758C103.46 54.1705 103.019 54.6282 102.64 54.849C101.978 54.4704 101.489 53.9336 101.174 53.2391C100.859 52.5763 100.622 51.8817 100.464 51.1556C100.464 50.5558 100.543 49.7984 100.701 48.8829C100.89 47.9673 101.127 46.9571 101.41 45.8524C101.726 44.7158 102.104 43.5319 102.546 42.3009C102.987 41.0698 103.476 39.8388 104.012 38.6075C105.211 35.8296 106.298 33.6514 107.276 32.073C108.285 30.4948 108.916 29.6425 109.168 29.5159Z" fill="#401AC3"/>
</svg>
