<svg width="70" height="70" viewBox="0 0 70 70" fill="none" xmlns="http://www.w3.org/2000/svg">
<circle cx="35" cy="35" r="35" fill="#E1E5FF"/>
<path d="M42.1517 30.0655L48.2364 23.9808L46.0143 21.7588L39.9297 27.8434L42.1517 30.0655ZM51.4345 23.9808C51.4345 24.3339 51.3099 24.6661 51.0607 24.9153L24.3546 51.6214C24.1054 51.8706 23.7732 51.9952 23.4201 51.9952C23.0671 51.9952 22.7348 51.8706 22.4856 51.6214L18.3738 47.5095C18.1246 47.2603 18 46.9281 18 46.575C18 46.222 18.1246 45.8897 18.3738 45.6405L45.0798 18.9345C45.329 18.6853 45.6613 18.5607 46.0143 18.5607C46.3674 18.5607 46.6996 18.6853 46.9488 18.9345L51.0607 23.0463C51.3099 23.2955 51.4345 23.6278 51.4345 23.9808ZM23.3786 20.0351L25.4137 20.6581L23.3786 21.2811L22.7556 23.3163L22.1326 21.2811L20.0974 20.6581L22.1326 20.0351L22.7556 18L23.3786 20.0351ZM30.6469 23.3994L34.7172 24.6454L30.6469 25.8914L29.4009 29.9616L28.1549 25.8914L24.0847 24.6454L28.1549 23.3994L29.4009 19.3291L30.6469 23.3994ZM49.96 33.3259L51.9952 33.9489L49.96 34.5719L49.337 36.607L48.714 34.5719L46.6789 33.9489L48.714 33.3259L49.337 31.2907L49.96 33.3259ZM36.6693 20.0351L38.7044 20.6581L36.6693 21.2811L36.0463 23.3163L35.4233 21.2811L33.3882 20.6581L35.4233 20.0351L36.0463 18L36.6693 20.0351Z" fill="#0E2E93"/>
</svg>
