<svg width="22" height="23" viewBox="0 0 22 23" fill="none" xmlns="http://www.w3.org/2000/svg">
<g opacity="0.15">
<path d="M16.6436 6.75684H8.70216C8.12506 6.75684 7.65723 7.29424 7.65723 7.95716V17.7998C7.65723 18.4628 8.12506 19.0002 8.70216 19.0002H16.6436C17.2207 19.0002 17.6886 18.4628 17.6886 17.7998V7.95716C17.6886 7.29424 17.2207 6.75684 16.6436 6.75684Z" fill="#B2B1FF"/>
</g>
<path d="M15.6835 5.48535H6.31621C6.09128 5.48535 5.90894 5.69767 5.90894 5.95957V17.1036C5.90894 17.3655 6.09128 17.5779 6.31621 17.5779H15.6835C15.9084 17.5779 16.0908 17.3655 16.0908 17.1036V5.95957C16.0908 5.69767 15.9084 5.48535 15.6835 5.48535Z" stroke="#6563FF" stroke-width="2" stroke-miterlimit="10"/>
<path d="M18 5.07617H4" stroke="#6563FF" stroke-width="2" stroke-miterlimit="10"/>
<path d="M13.0406 5.09097H8.96118L9.37915 3H12.6226L13.0406 5.09097Z" stroke="#6563FF" stroke-miterlimit="10"/>
<path d="M8.96118 7.71777V14.5596" stroke="#6563FF" stroke-miterlimit="10"/>
<path d="M13.0408 7.71777V14.5596" stroke="#6563FF" stroke-miterlimit="10"/>
</svg>
