<svg width="15" height="15" viewBox="0 0 15 15" fill="none" xmlns="http://www.w3.org/2000/svg">
<path fill-rule="evenodd" clip-rule="evenodd" d="M13.75 7.5C13.75 10.4462 13.75 11.9194 12.8347 12.8347C11.9194 13.75 10.4462 13.75 7.5 13.75C4.55372 13.75 3.08058 13.75 2.16529 12.8347C1.25 11.9194 1.25 10.4462 1.25 7.5C1.25 4.55372 1.25 3.08058 2.16529 2.16529C3.08058 1.25 4.55372 1.25 7.5 1.25C10.4462 1.25 11.9194 1.25 12.8347 2.16529C13.75 3.08058 13.75 4.55372 13.75 7.5ZM10.9091 4.31464C11.115 4.47154 11.1547 4.76566 10.9979 4.97158L6.71212 10.5966C6.62681 10.7086 6.49563 10.7763 6.35488 10.781C6.21416 10.7857 6.07878 10.7269 5.98617 10.6208L4.02188 8.37075C3.85162 8.17575 3.8717 7.87962 4.06673 7.70937C4.26174 7.53912 4.55786 7.55919 4.72812 7.75425L6.31456 9.57144L10.2521 4.40342C10.4091 4.19749 10.7032 4.15774 10.9091 4.31464Z" fill="#885DED"/>
</svg>
