<svg width="15" height="16" viewBox="0 0 15 16" fill="none" xmlns="http://www.w3.org/2000/svg">
<path d="M15 4.1917C15.0006 4.08642 14.9816 3.98206 14.9443 3.8846C14.907 3.78714 14.852 3.69849 14.7825 3.62374L11.6025 0.231996C11.5324 0.157856 11.4493 0.0992007 11.3579 0.0593919C11.2665 0.0195832 11.1687 -0.000595299 11.07 1.33704e-05C10.9713 -0.000595299 10.8734 0.0195832 10.7821 0.0593919C10.6907 0.0992007 10.6076 0.157856 10.5375 0.231996L8.415 2.49583L0.217512 11.2392C0.148001 11.3139 0.0930074 11.4026 0.055684 11.5C0.0183606 11.5975 -0.000558133 11.7019 1.25357e-05 11.8071V15.1989C1.25357e-05 15.411 0.07903 15.6145 0.219682 15.7645C0.360334 15.9145 0.551099 15.9988 0.750011 15.9988H3.93001C4.03495 16.0049 4.13993 15.9874 4.23812 15.9474C4.33632 15.9075 4.42554 15.8459 4.50001 15.7668L12.6525 7.02349L14.7825 4.79965C14.8509 4.72213 14.9067 4.63289 14.9475 4.53568C14.9547 4.47191 14.9547 4.40745 14.9475 4.34369C14.951 4.30645 14.951 4.26893 14.9475 4.2317L15 4.1917ZM3.62251 14.3989H1.50001V12.1351L8.9475 4.1917L11.07 6.45553L3.62251 14.3989ZM12.1275 5.32762L10.005 3.06378L11.07 1.93587L13.185 4.1917L12.1275 5.32762Z" fill="#6563FF"/>
</svg>
