<svg width="56" height="56" viewBox="0 0 56 56" fill="none" xmlns="http://www.w3.org/2000/svg">
<rect width="56" height="56" rx="12" fill="white"/>
<rect x="1" y="1" width="54" height="54" rx="11" stroke="#5934FE" stroke-opacity="0.5" stroke-width="2"/>
<path d="M41.4815 33.7413H38.8889V29.0751C38.8889 28.9375 38.8343 28.8057 38.737 28.7084C38.6398 28.6112 38.5079 28.5566 38.3704 28.5566H28.5185V24.3829C29.9802 24.2494 31.3342 23.5577 32.2989 22.4515C33.2635 21.3453 33.7646 19.9099 33.6978 18.4437C33.631 16.9776 33.0015 15.5936 31.9403 14.5797C30.8791 13.5658 29.4678 13 28 13C26.5322 13 25.1209 13.5658 24.0597 14.5797C22.9985 15.5936 22.369 16.9776 22.3022 18.4437C22.2354 19.9099 22.7365 21.3453 23.7011 22.4515C24.6658 23.5577 26.0198 24.2494 27.4815 24.3829V28.5566H17.6296C17.4921 28.5566 17.3602 28.6112 17.263 28.7084C17.1657 28.8057 17.1111 28.9375 17.1111 29.0751V33.7413H14.5185C14.381 33.7413 14.2491 33.796 14.1519 33.8932C14.0546 33.9904 14 34.1223 14 34.2598V40.4815C14 40.619 14.0546 40.7509 14.1519 40.8481C14.2491 40.9454 14.381 41 14.5185 41H20.7407C20.8783 41 21.0101 40.9454 21.1074 40.8481C21.2046 40.7509 21.2593 40.619 21.2593 40.4815V34.2598C21.2593 34.1223 21.2046 33.9904 21.1074 33.8932C21.0101 33.796 20.8783 33.7413 20.7407 33.7413H18.1481V29.5935H27.4815V33.7413H24.8889C24.7514 33.7413 24.6195 33.796 24.5222 33.8932C24.425 33.9904 24.3704 34.1223 24.3704 34.2598V40.4815C24.3704 40.619 24.425 40.7509 24.5222 40.8481C24.6195 40.9454 24.7514 41 24.8889 41H31.1111C31.2486 41 31.3805 40.9454 31.4778 40.8481C31.575 40.7509 31.6296 40.619 31.6296 40.4815V34.2598C31.6296 34.1223 31.575 33.9904 31.4778 33.8932C31.3805 33.796 31.2486 33.7413 31.1111 33.7413H28.5185V29.5935H37.8519V33.7413H35.2593C35.1217 33.7413 34.9899 33.796 34.8926 33.8932C34.7954 33.9904 34.7407 34.1223 34.7407 34.2598V40.4815C34.7407 40.619 34.7954 40.7509 34.8926 40.8481C34.9899 40.9454 35.1217 41 35.2593 41H41.4815C41.619 41 41.7509 40.9454 41.8481 40.8481C41.9454 40.7509 42 40.619 42 40.4815V34.2598C42 34.1223 41.9454 33.9904 41.8481 33.8932C41.7509 33.796 41.619 33.7413 41.4815 33.7413ZM23.3333 18.7055C23.3333 17.7826 23.607 16.8805 24.1198 16.1131C24.6326 15.3457 25.3614 14.7476 26.2141 14.3945C27.0669 14.0413 28.0052 13.9489 28.9104 14.1289C29.8157 14.309 30.6472 14.7534 31.2998 15.406C31.9525 16.0586 32.3969 16.89 32.577 17.7952C32.7571 18.7004 32.6646 19.6386 32.3114 20.4913C31.9582 21.3439 31.3601 22.0727 30.5927 22.5854C29.8252 23.0982 28.923 23.3718 28 23.3718C26.7627 23.3705 25.5766 22.8784 24.7017 22.0036C23.8268 21.1288 23.3347 19.9427 23.3333 18.7055ZM20.2222 39.963H15.037V34.7783H20.2222V39.963ZM30.5926 39.963H25.4074V34.7783H30.5926V39.963ZM40.963 39.963H35.7778V34.7783H40.963V39.963Z" fill="#6745FF" stroke="#6745FF"/>
</svg>
