<svg width="48" height="36" viewBox="0 0 48 36" fill="none" xmlns="http://www.w3.org/2000/svg">
<path d="M18.6 4.40002H17.6V6.40002H18.6V4.40002ZM45.2 6.40002C45.7523 6.40002 46.2 5.95231 46.2 5.40002C46.2 4.84774 45.7523 4.40002 45.2 4.40002V6.40002ZM18.6 6.40002L45.2 6.40002V4.40002L18.6 4.40002V6.40002Z" fill="#0832FF"/>
<path d="M1.79999 4.40002C1.2477 4.40002 0.799988 4.84774 0.799988 5.40002C0.799988 5.95231 1.2477 6.40002 1.79999 6.40002V4.40002ZM7.39999 6.40002H8.39999V4.40002H7.39999V6.40002ZM1.79999 6.40002H7.39999V4.40002H1.79999V6.40002Z" fill="#0832FF"/>
<path d="M32.6 17H31.6V19H32.6V17ZM45.2 19C45.7523 19 46.2 18.5523 46.2 18C46.2 17.4477 45.7523 17 45.2 17V19ZM32.6 19H45.2V17H32.6V19Z" fill="#0832FF"/>
<path d="M1.79999 17C1.2477 17 0.799988 17.4477 0.799988 18C0.799988 18.5523 1.2477 19 1.79999 19L1.79999 17ZM21.4 19H22.4V17H21.4V19ZM1.79999 19L21.4 19V17L1.79999 17L1.79999 19Z" fill="#0832FF"/>
<path d="M22.8 29.6H21.8V31.6H22.8V29.6ZM46.2735 31.6C46.8258 31.6 47.2735 31.1523 47.2735 30.6C47.2735 30.0477 46.8258 29.6 46.2735 29.6V31.6ZM22.8 31.6H46.2735V29.6H22.8V31.6Z" fill="#0832FF"/>
<path d="M1.79919 29.5125C1.24691 29.5125 0.799194 29.9602 0.799194 30.5125C0.799194 31.0647 1.24691 31.5125 1.79919 31.5125V29.5125ZM11.254 31.5125H12.254V29.5125H11.254V31.5125ZM1.79919 31.5125H11.254V29.5125H1.79919V31.5125Z" fill="#0832FF"/>
<path d="M17.2 5.33381C17.1922 6.44022 16.7513 7.50108 15.969 8.29567C15.1867 9.09027 14.1233 9.55742 13 9.59995C11.8767 9.55742 10.8133 9.09027 10.031 8.29567C9.24871 7.50108 8.8078 6.44022 8.79999 5.33381C8.79999 4.23744 9.24249 3.18598 10.0301 2.41073C10.8178 1.63548 11.8861 1.19995 13 1.19995C14.1139 1.19995 15.1822 1.63548 15.9698 2.41073C16.7575 3.18598 17.2 4.23744 17.2 5.33381Z" stroke="#0832FF" stroke-linecap="round" stroke-linejoin="round"/>
<path d="M31.375 17.86C31.375 19.0203 30.9141 20.1331 30.0936 20.9536C29.2731 21.774 28.1603 22.235 27 22.235C25.8397 22.235 24.7269 21.774 23.9064 20.9536C23.0859 20.1331 22.625 19.0203 22.625 17.86C22.625 16.6997 23.0859 15.5869 23.9064 14.7664C24.7269 13.9459 25.8397 13.485 27 13.485C28.1603 13.485 29.2731 13.9459 30.0936 14.7664C30.9141 15.5869 31.375 16.6997 31.375 17.86Z" stroke="#0832FF" stroke-linecap="round" stroke-linejoin="round"/>
<path d="M28.75 18C28.75 18.4641 28.5656 18.9092 28.2374 19.2374C27.9092 19.5656 27.4641 19.75 27 19.75C26.5359 19.75 26.0908 19.5656 25.7626 19.2374C25.4344 18.9092 25.25 18.4641 25.25 18C25.25 17.5359 25.4344 17.0908 25.7626 16.7626C26.0908 16.4344 26.5359 16.25 27 16.25C27.4641 16.25 27.9092 16.4344 28.2374 16.7626C28.5656 17.0908 28.75 17.5359 28.75 18Z" fill="#0832FF"/>
<path d="M21.75 30.775C21.7419 31.946 21.2826 33.0687 20.4677 33.9097C19.6528 34.7506 18.5451 35.245 17.375 35.29C16.2049 35.245 15.0972 34.7506 14.2823 33.9097C13.4674 33.0687 13.0081 31.946 13 30.775C13 29.6147 13.4609 28.5019 14.2814 27.6814C15.1019 26.861 16.2147 26.4 17.375 26.4C18.5353 26.4 19.6481 26.861 20.4686 27.6814C21.2891 28.5019 21.75 29.6147 21.75 30.775Z" stroke="#0832FF" stroke-linecap="round" stroke-linejoin="round"/>
</svg>
