<svg width="48" height="36" viewBox="0 0 48 36" fill="none" xmlns="http://www.w3.org/2000/svg">
    <path d="M18.6001 4.40039H17.6001V6.40039H18.6001V4.40039ZM45.2001 6.40039C45.7524 6.40039 46.2001 5.95268 46.2001 5.40039C46.2001 4.84811 45.7524 4.40039 45.2001 4.40039V6.40039ZM18.6001 5.40039V6.40039L45.2001 6.40039V5.40039V4.40039L18.6001 4.40039V5.40039Z" fill="#0832FF"/>
    <path d="M1.80005 4.40039C1.24776 4.40039 0.800049 4.84811 0.800049 5.40039C0.800049 5.95268 1.24776 6.40039 1.80005 6.40039V4.40039ZM7.40005 6.40039H8.40005V4.40039H7.40005V6.40039ZM1.80005 5.40039V6.40039H7.40005V5.40039V4.40039H1.80005V5.40039Z" fill="#0832FF"/>
    <path d="M32.6001 17H31.6001V19H32.6001V17ZM45.2001 19C45.7524 19 46.2001 18.5523 46.2001 18C46.2001 17.4477 45.7524 17 45.2001 17V19ZM32.6001 18V19H45.2001V18V17H32.6001V18Z" fill="#0832FF"/>
    <path d="M1.80005 17C1.24776 17 0.800049 17.4477 0.800049 18C0.800049 18.5523 1.24776 19 1.80005 19L1.80005 17ZM21.4 19H22.4V17H21.4V19ZM1.80005 18L1.80005 19L21.4 19V18V17L1.80005 17L1.80005 18Z" fill="#0832FF"/>
    <path d="M22.8 29.5996H21.8V31.5996H22.8V29.5996ZM46.2735 31.5996C46.8258 31.5996 47.2735 31.1519 47.2735 30.5996C47.2735 30.0473 46.8258 29.5996 46.2735 29.5996V31.5996ZM22.8 30.5996V31.5996H46.2735V30.5996V29.5996H22.8V30.5996Z" fill="#0832FF"/>
    <path d="M1.79907 29.5127C1.24679 29.5127 0.799072 29.9604 0.799072 30.5127C0.799072 31.065 1.24679 31.5127 1.79907 31.5127V29.5127ZM11.2539 31.5127H12.2539V29.5127H11.2539V31.5127ZM1.79907 30.5127V31.5127H11.2539V30.5127V29.5127H1.79907V30.5127Z" fill="#0832FF"/>
    <path d="M17.2 5.33405C17.1922 6.44047 16.7513 7.50132 15.969 8.29592C15.1868 9.09051 14.1234 9.55767 13 9.60019C11.8767 9.55767 10.8133 9.09051 10.031 8.29592C9.24877 7.50132 8.80787 6.44047 8.80005 5.33405C8.80005 4.23769 9.24255 3.18622 10.0302 2.41097C10.8179 1.63573 11.8861 1.2002 13 1.2002C14.114 1.2002 15.1822 1.63573 15.9699 2.41097C16.7575 3.18622 17.2 4.23769 17.2 5.33405Z" stroke="#0832FF" stroke-linecap="round" stroke-linejoin="round"/>
    <path d="M31.375 17.8604C31.375 19.0207 30.9141 20.1335 30.0936 20.9539C29.2731 21.7744 28.1603 22.2354 27 22.2354C25.8397 22.2354 24.7269 21.7744 23.9064 20.9539C23.0859 20.1335 22.625 19.0207 22.625 17.8604C22.625 16.7 23.0859 15.5872 23.9064 14.7668C24.7269 13.9463 25.8397 13.4854 27 13.4854C28.1603 13.4854 29.2731 13.9463 30.0936 14.7668C30.9141 15.5872 31.375 16.7 31.375 17.8604Z" stroke="#0832FF" stroke-linecap="round" stroke-linejoin="round"/>
    <path d="M28.75 18C28.75 18.4641 28.5656 18.9092 28.2374 19.2374C27.9092 19.5656 27.4641 19.75 27 19.75C26.5359 19.75 26.0908 19.5656 25.7626 19.2374C25.4344 18.9092 25.25 18.4641 25.25 18C25.25 17.5359 25.4344 17.0908 25.7626 16.7626C26.0908 16.4344 26.5359 16.25 27 16.25C27.4641 16.25 27.9092 16.4344 28.2374 16.7626C28.5656 17.0908 28.75 17.5359 28.75 18Z" fill="#0832FF"/>
    <path d="M21.75 30.7754C21.7419 31.9463 21.2826 33.0691 20.4677 33.91C19.6528 34.751 18.5451 35.2454 17.375 35.2904C16.2049 35.2454 15.0972 34.751 14.2823 33.91C13.4674 33.0691 13.0081 31.9463 13 30.7754C13 29.6151 13.4609 28.5023 14.2814 27.6818C15.1019 26.8613 16.2147 26.4004 17.375 26.4004C18.5353 26.4004 19.6481 26.8613 20.4686 27.6818C21.2891 28.5023 21.75 29.6151 21.75 30.7754Z" stroke="#0832FF" stroke-linecap="round" stroke-linejoin="round"/>
</svg>
