<svg width="56" height="56" viewBox="0 0 56 56" fill="none" xmlns="http://www.w3.org/2000/svg">
<rect width="56" height="56" rx="12" fill="white"/>
<rect x="1" y="1" width="54" height="54" rx="11" stroke="#5934FE" stroke-opacity="0.5" stroke-width="2"/>
<path d="M42 20.3355C42.001 20.1512 41.9657 19.9686 41.8961 19.798C41.8264 19.6275 41.7237 19.4724 41.594 19.3416L35.658 13.406C35.5272 13.2762 35.372 13.1736 35.2015 13.1039C35.0309 13.0343 34.8482 12.999 34.664 13C34.4797 12.999 34.2971 13.0343 34.1265 13.1039C33.9559 13.1736 33.8008 13.2762 33.67 13.406L29.708 17.3677L14.406 32.6686C14.2763 32.7994 14.1736 32.9545 14.1039 33.1251C14.0343 33.2956 13.999 33.4782 14 33.6625V39.598C14 39.9693 14.1475 40.3254 14.4101 40.5879C14.6726 40.8504 15.0287 40.9979 15.4 40.9979H21.336C21.5319 41.0086 21.7279 40.978 21.9112 40.908C22.0945 40.8381 22.261 40.7304 22.4 40.592L37.618 25.2911L41.594 21.3994C41.7218 21.2637 41.8259 21.1076 41.902 20.9374C41.9155 20.8258 41.9155 20.713 41.902 20.6015C41.9085 20.5363 41.9085 20.4706 41.902 20.4055L42 20.3355ZM20.762 38.1981H16.8V34.2364L30.702 20.3355L34.664 24.2972L20.762 38.1981ZM36.638 22.3233L32.676 18.3616L34.664 16.3878L38.612 20.3355L36.638 22.3233Z" fill="#6745FF"/>
</svg>
