<svg width="308" height="291" viewBox="0 0 308 291" fill="none" xmlns="http://www.w3.org/2000/svg">
<path fill-rule="evenodd" clip-rule="evenodd" d="M120.89 223.658C80.1402 226.279 36.5816 195.159 36.5816 157.285C36.5816 119.41 101.171 135.551 122.123 105.491C172.325 33.516 273.673 149.336 238.043 162.263C166.653 188.146 218.64 217.365 120.89 223.658Z" fill="#F0EFF4"/>
<path d="M232.235 155.763C232.257 155.864 232.312 155.958 232.335 156.059C232.515 157.005 232.629 157.649 232.51 158.476C232.225 160.244 230.918 161.957 231.674 164.196C232.488 167.369 236.602 169.298 237.708 166.153C238.343 164.075 237.263 161.546 236.055 159.252C235.382 158.021 234.607 156.843 233.738 155.728C234.689 155.669 235.625 155.471 236.513 155.142C236.7 155.072 236.853 155.008 237.04 154.938C237.093 154.963 237.18 154.982 237.233 155.007C238.865 154.354 240.203 153.72 241.862 153.306C244.715 152.531 248.33 151.753 248.6 148.868C248.628 147.953 247.74 147.033 246.812 146.366C245.557 145.571 244.025 145.266 242.538 145.516C239.975 145.818 238.206 147.267 237.247 149.055C236.657 150.18 236.385 151.455 236.2 152.749C236.159 153.387 236 154.081 236.167 154.75C235.079 155.163 233.875 155.317 232.597 155.344C232.535 155.329 232.469 155.329 232.407 155.344C231.95 155.355 231.492 155.335 231.038 155.284C230.934 153.309 231.786 151.47 232.533 149.582C232.777 148.836 233.108 148.11 233.192 147.289C233.849 147.478 234.527 147.587 235.213 147.613C236.478 147.693 237.555 147.002 237.072 145.867C236.21 144.348 233.22 143.609 231.599 143.316C230.219 143.117 228.817 143.084 227.427 143.217C227.236 143.223 227.046 143.246 226.86 143.288C227.674 142.541 228.454 141.801 229.216 141.03C229.896 140.378 230.539 139.664 231.201 138.981C233.364 139.418 235.334 140.557 237.338 141.689C239.771 143.161 242.315 144.752 244.807 144.009C246.902 143.304 246.792 140.805 244.408 139.288C241.99 137.779 239.091 137.128 236.525 136.975C235.483 136.911 234.437 136.93 233.398 137.032C233.295 137.051 233.173 137.039 233.036 137.064L234.824 135.262C235.835 134.269 236.864 133.307 237.875 132.314C237.997 132.327 238.153 132.333 238.309 132.339C238.97 132.426 239.247 132.444 239.927 132.563C241.619 132.913 243.337 133.433 245.027 133.714C246.646 133.968 248.293 134.026 249.928 133.887C251.116 133.771 252.372 133.642 253.355 133.18C255.133 132.324 255.306 130.367 252.772 128.983C250.558 127.903 248.05 127.479 245.577 127.767C244.925 127.888 244.149 127.927 243.572 128.175L243.086 127.74L243.154 127.727C244.558 127.011 246.108 126.478 247.692 125.938C249.772 125.271 251.993 124.648 254.244 123.949C255.182 124.439 255.996 124.848 256.962 125.579C259.554 127.511 261.404 130.632 263.925 132.892C265.654 134.461 270.185 137.222 272.365 136.852C276.861 136.085 268.31 130.012 266.276 128.571C263.938 126.941 261.423 125.589 258.88 124.382C258.038 123.975 257.167 123.622 256.274 123.327C259.259 122.387 262.206 121.384 264.938 120.21C265.431 120.014 265.905 119.786 266.345 119.564L266.398 119.589C266.731 119.702 267.118 119.84 267.47 119.984C268.031 120.16 269.181 120.751 269.412 120.883C273.896 123.373 276.699 127.716 281.574 130.029C283.625 131.048 286.212 131.686 287.849 130.787C290.554 128.604 284.565 124.538 281.81 122.846C279.201 121.337 276.374 120.358 273.559 119.656C272.15 119.286 270.71 119.027 269.254 118.883C268.8 118.828 268.343 118.808 267.886 118.822C271.266 117.148 274.426 115.104 277.3 112.731C277.44 112.775 277.596 112.781 277.736 112.825C278.542 113.04 279.333 113.302 280.105 113.609C282.094 114.394 283.602 115.268 285.403 116.508C287.631 118.019 289.871 119.807 292.527 120.433C293.45 120.576 294.51 120.694 295.131 120.263C295.664 119.814 295.783 118.987 295.232 118.25C294.472 117.096 293.12 116.227 291.839 115.416C290.672 114.678 289.452 114.016 288.189 113.435C286.657 112.705 285.049 112.124 283.392 111.703C282.068 111.349 280.722 111.074 279.361 110.878C279.858 110.366 280.354 109.854 280.831 109.31L280.865 109.303C282.927 108.22 285.347 107.42 286.723 105.694C287.279 104.961 287.763 104.171 287.701 103.167C287.724 101.728 285.524 100.458 283.944 100.297C282.291 100.079 281.172 100.952 280.771 102.077C280.349 103.485 280.732 105.094 280.624 106.584C280.6 107.285 280.504 107.983 280.336 108.667C280.32 108.7 280.313 108.736 280.315 108.772C280.316 108.808 280.327 108.844 280.345 108.875C279.768 109.508 279.19 110.14 278.545 110.785C278.071 111.253 277.571 111.697 277.047 112.113C277.335 111.185 277.236 110.119 276.653 109.073C276.292 108.335 275.404 107.8 274.528 107.543C272.552 107.036 272.005 108.362 272.812 109.787C273.416 110.935 274.74 112.333 274.689 113.148C274.699 113.371 274.691 113.595 274.667 113.817C274.644 113.855 274.632 113.897 274.631 113.94C274.63 113.983 274.64 114.025 274.661 114.063C273.259 115.103 271.788 116.054 270.256 116.913C270.812 115.794 271.224 114.563 270.851 113.162C270.519 111.894 269.145 110.54 267.523 110.632C266.005 110.704 264.985 111.489 264.158 112.343C262.483 113.949 262.202 116.626 261.562 118.565C261.275 119.493 260.794 120.353 260.294 121.18C260.248 121.294 260.063 121.433 260.088 121.604C256.171 122.962 252.157 124.094 248.063 125.345C246.307 125.917 244.57 126.52 242.979 127.306C243.672 126.547 244.331 125.795 244.97 125.011C245.787 125.104 246.526 125.001 246.994 124.634C247.512 124.223 247.285 123.39 246.621 122.849C246.962 122.331 247.336 121.806 247.658 121.256C249.447 122.218 251.17 122.878 252.53 122.345C253.681 121.781 252.8 120.23 251.591 119.475C251.081 119.146 250.542 118.86 249.979 118.62C250.574 118.196 251.205 117.821 251.867 117.499C254.811 116.042 258.319 115.215 260.846 113.309C262.119 112.372 263.544 111.372 263.892 109.838C264.004 109.257 264.042 108.55 263.497 107.951C261.425 106.062 258.609 107.286 257.015 108.002C255.645 108.645 254.472 109.61 253.612 110.805C252.763 111.943 252.216 113.269 251.564 114.546C251.286 115.072 250.98 115.585 250.646 116.081C250.727 115.961 250.789 115.81 250.871 115.689C251.473 114.457 251.97 113.175 252.467 111.893C252.535 111.88 252.551 111.842 252.619 111.83C252.647 111.812 252.67 111.788 252.687 111.761C252.704 111.734 252.714 111.703 252.716 111.672C252.707 111.602 252.68 111.535 252.639 111.476C252.654 111.438 252.669 111.4 252.704 111.394C252.751 111.403 252.801 111.397 252.844 111.376C252.887 111.356 252.921 111.322 252.941 111.28C253.834 109.189 256.628 105.485 254.45 102.775C254.156 102.523 253.775 102.382 253.378 102.38C252.34 102.363 251.8 103.058 251.466 103.715C250.71 105.396 250.659 107.365 251.181 109.402C251.316 109.975 251.485 110.539 251.688 111.093C251.763 111.219 251.769 111.358 251.878 111.478C251.538 111.611 251.216 111.776 250.877 111.909C250.546 110.913 250.31 109.891 250.171 108.855C249.973 107.493 249.756 105.328 248.048 104.246C247.786 104.106 247.477 104.065 247.185 104.133C246.892 104.201 246.638 104.371 246.474 104.61C245.756 105.583 246.095 106.99 246.617 108.257C247.08 109.359 247.696 110.398 248.448 111.346C248.762 111.754 249.114 112.134 249.501 112.48L249.52 112.512C248.996 112.784 248.473 113.057 248.001 113.354C246.217 114.456 244.704 115.823 243.206 117.151C243.056 117.284 242.922 117.379 242.772 117.512C242.57 117.234 242.402 116.951 242.233 116.667C241.688 115.739 241.217 114.774 240.826 113.779C240.149 112.12 239.196 109.358 236.921 107.961C236.192 107.502 235.387 107.687 235.078 108.129C234.576 108.887 235.092 110.016 235.497 110.956C236.225 112.57 237.384 114.139 238.677 115.614C239.44 116.452 240.185 117.258 241.032 118.045C241.228 118.184 241.393 118.398 241.605 118.499C240.607 119.384 239.574 120.276 238.542 121.168C237.618 119.416 237.029 117.845 236.291 116.022C235.579 114.37 234.844 112.618 233.277 111.194C232.003 110.136 230.577 110.366 230.209 111.415C229.525 113.152 230.386 115.441 231.545 117.395C232.303 118.586 233.211 119.686 234.249 120.671C234.869 121.271 235.523 121.839 236.208 122.371C236.386 122.478 236.548 122.623 236.726 122.73C236.242 123.135 235.743 123.578 235.259 123.983L233.809 125.198C233.774 125.204 233.74 125.21 233.759 125.241C233.724 125.248 233.743 125.279 233.743 125.279C233.375 125.558 232.992 125.874 232.623 126.152L232.589 126.158C231.353 123.624 229.874 121.064 227.628 118.752C226.594 117.65 225.438 116.535 224.02 115.749C222.443 114.888 220.024 114.148 219.804 115.833C219.722 117.493 221.052 119.031 222.666 120.34C221.588 119.806 220.431 119.461 219.34 119.419C218.692 119.388 218.056 119.592 217.562 119.99C217.068 120.388 216.755 120.949 216.685 121.558C216.583 123.957 219.179 126.344 221.02 128.486C222.02 129.595 222.939 130.824 222.932 131.84C222.916 132.159 222.86 132.474 222.766 132.781C222.719 132.894 222.619 132.983 222.694 133.109C222.714 133.15 222.744 133.187 222.782 133.216C222.819 133.246 222.862 133.267 222.909 133.279C222.824 133.356 222.747 133.441 222.678 133.532C221.999 133.798 221.427 134.184 221.337 134.866C221.345 134.939 221.336 135.012 221.312 135.081C221.273 135.155 221.224 135.223 221.165 135.283C220.848 135.696 220.555 136.124 220.288 136.566C220.42 134.862 220.621 133.145 219.865 131.291C218.673 128.188 215.302 125.07 214.309 122.175C213.809 120.624 213.962 119.405 213.829 117.96C214.004 117.997 214.157 117.934 214.185 117.789C214.272 117.423 214.344 117.094 214.451 116.76C214.776 115.509 215.045 114.549 215.457 113.318C215.685 112.61 215.948 111.897 216.21 111.183L216.244 111.176C216.727 111.086 217.216 111.031 217.707 111.009C218.637 110.907 220.869 110.946 221.932 111.134C224.139 111.388 226.904 112.518 228.498 111.417C229.687 110.531 228.687 108.652 227.123 107.683C225.287 106.45 222.996 105.861 221.085 106.042C219.672 106.165 218.612 106.817 217.62 107.456C217.443 107.565 217.264 107.668 217.081 107.766C217.284 106.889 217.453 106.017 217.681 105.31C218.297 103.2 219.284 101.267 220.165 99.2838C220.339 99.3214 220.492 99.2579 220.648 99.2639C221.063 99.2568 221.477 99.2494 221.876 99.2804C223.081 99.3695 224.276 99.5571 225.446 99.8413C226.861 100.173 228.301 100.675 229.726 100.831C231.743 101.085 233.736 100.785 234.881 99.6968C235.938 98.5901 234.568 96.9202 232.888 96.0779C231.171 95.1725 229.269 94.7912 227.52 94.7317C224.957 94.6485 223.46 95.5919 222.514 97.2727C222.255 97.6708 221.622 98.2086 221.107 98.3043C220.924 98.3678 220.735 98.4147 220.543 98.4443C220.702 98.1348 220.808 97.8 220.949 97.459C221.739 95.3871 221.906 93.2913 223.261 91.4644C223.981 90.5604 225.519 89.3644 226.281 88.2078C226.656 87.6833 227.03 87.1586 227.352 86.6089C229.721 86.238 232.717 86.7305 235.349 86.416C236.328 86.2689 237.301 85.983 237.826 85.3247C238.89 83.9716 237.89 82.478 235.661 81.7377C233.29 80.8842 231.34 81.7718 229.805 82.652C229.313 82.965 228.869 83.3422 228.489 83.7724C228.615 83.3385 228.769 82.9124 228.951 82.4965C229.329 81.6562 229.79 81.1503 230.577 80.5493C231.452 79.9871 232.275 79.3543 233.035 78.6578C233.616 78.3508 234.179 78.0125 234.719 77.6445C235.424 77.1635 236.129 76.6823 236.513 75.981C237.06 75.0395 237.323 73.5557 235.892 72.4919C235.104 71.8687 233.919 71.6691 233.171 71.9483C231.377 72.8418 231.167 75.5058 231.667 77.4424C231.788 77.8401 231.91 78.2375 232.031 78.6346L232.05 78.6661C231.716 78.9381 231.382 79.2102 231.03 79.4507C230.404 79.8334 229.827 80.2813 229.307 80.786C229.277 79.7068 229.711 78.5761 229.625 77.4024C229.561 75.5595 228.103 73.486 225.991 72.2341C223.351 70.8005 221.255 71.8903 221.82 74.1297C222.057 75.1707 222.742 76.1981 223.408 77.194C224.199 78.2716 225.043 79.3745 226.09 80.3696C226.614 80.8672 227.187 81.3204 227.779 81.8052C227.957 81.949 228.147 82.0775 228.349 82.1892C227.984 82.9221 227.796 83.7618 227.536 84.545C227.122 85.7109 226.511 86.8057 225.726 87.7864C225.03 88.8608 223.507 90.019 222.59 91.1695C222.414 91.3926 222.262 91.6319 222.137 91.8837C222.101 91.8144 222.051 91.7523 221.991 91.701C221.596 90.1996 221.6 88.729 221.414 87.2587C221.123 84.5831 219.962 81.7895 216.499 80.1238C214.944 79.3633 212.921 78.9697 211.888 79.8619C210.725 80.9183 210.913 82.8429 211.969 84.4306C213.455 86.7441 216.063 88.6385 218.656 90.1859C219.703 90.7961 220.65 91.1098 221.335 91.7522L221.373 91.8152C221.422 92.0175 221.489 92.2157 221.572 92.4081C221.597 92.4456 221.631 92.477 221.671 92.5C221.711 92.5229 221.756 92.5367 221.803 92.5402C221.125 94.031 220.837 95.7294 220.278 97.1633C219.438 99.2795 218.386 101.296 217.545 103.411C217.449 103.184 217.328 102.787 217.231 102.56C216.843 101.424 216.526 100.268 216.283 99.0967C215.596 96.0748 214.635 92.3339 210.659 90.3791C205.457 88.0921 201.273 90.8651 204.653 95.3457C206.506 97.7657 209.435 99.4955 212.353 100.947C213.824 101.759 215.426 102.406 216.435 103.338C216.603 103.54 216.746 103.76 216.862 103.993C216.937 104.119 216.923 104.226 217.049 104.308L217.208 104.384C217.148 104.605 217.055 104.832 216.995 105.053C216.508 106.544 216.251 108.167 215.869 109.707C215.777 110.088 215.655 110.461 215.504 110.825C215.469 110.831 215.488 110.863 215.473 110.901C215.379 111.128 215.32 111.349 215.226 111.576C213.557 109.787 212.645 107.542 211.019 105.57C209.421 103.837 206.938 102.025 204.515 101.985C200.954 102.018 203.376 106.362 205.339 108.131C206.944 109.618 208.998 110.705 211.105 111.433C211.347 112.228 211.659 113.01 211.988 113.824C211.752 113.553 211.48 113.288 211.244 113.017C210.574 112.337 208.97 110.466 207.984 110.859C207.058 111.416 208.569 113.13 209.494 113.728C210.371 114.348 211.358 114.816 212.408 115.11L212.443 115.103C212.692 115.811 212.869 116.54 212.971 117.28C213.049 117.864 213.092 118.452 213.101 119.041C213.029 118.984 212.939 118.895 212.867 118.839C212.524 118.518 212.216 118.19 211.907 117.863C211.2 117.119 210.562 116.364 209.67 115.759C208.009 114.563 206.553 115.254 207.677 116.83C208.543 118.034 210.176 118.605 211.576 118.974C211.857 119.062 212.558 119.282 212.882 119.571L212.901 119.602C212.972 119.659 213.01 119.722 213.081 119.779C213.158 121.129 213.375 122.524 214.285 123.929C216.004 126.829 218.792 129.67 219.401 132.497C219.786 134.56 219.254 136.618 219.368 138.802C219.41 141.314 220.028 143.963 220.157 146.494C220.21 146.904 220.262 147.314 220.331 147.687C219.406 146.704 218.43 145.766 217.405 144.872C215.286 143.097 213.133 141.327 211.133 139.494C211.143 139.319 211.182 139.147 211.249 138.983C211.435 138.348 211.716 137.741 212.085 137.182C213.009 135.785 215.159 134.336 215.556 132.372C216.188 129.84 212.803 127.985 210.302 128.905C208.115 129.907 208.129 132.564 208.346 134.728C208.46 135.616 208.649 136.494 208.912 137.353L208.641 137.088C207.229 135.671 205.884 134.172 204.488 132.716C204.482 132.577 204.335 132.395 204.276 132.231C204.079 131.903 203.913 131.559 203.781 131.203C203.299 130.068 202.888 128.219 202.908 127.096C202.867 124.584 204.495 122.706 203.821 119.962C203.489 118.309 201.433 115.997 199.505 116.985C198.897 117.308 198.612 117.921 198.36 118.458C197.951 119.375 197.806 120.416 197.836 121.495C197.899 123.062 198.248 124.608 198.868 126.063C199.248 126.987 199.692 127.886 200.197 128.754C197.689 126.771 194.95 125.041 192.463 123.159C192.479 123.12 192.486 123.078 192.481 123.036C192.476 122.994 192.46 122.954 192.435 122.919C192.386 122.718 192.354 122.513 192.339 122.307C192.296 121.72 192.384 120.584 192.687 120.003C193.805 117.905 195.078 115.813 194.946 113.213C194.864 110.184 193.948 105.105 189.476 103.277C186.415 102.097 185.025 104.315 185.012 106.347C184.788 109.888 186.858 113.703 188.558 117.341C189.246 118.823 189.765 120.021 190.31 121.39C189.666 120.824 189.057 120.224 188.484 119.594C186.902 117.824 185.787 116.072 184.454 114.08C183.302 112.264 182.012 110.475 180.86 108.659C180.636 108.281 180.427 107.865 180.203 107.486C180.225 107.465 180.242 107.44 180.253 107.412C180.264 107.384 180.268 107.355 180.265 107.325C180.262 107.295 180.252 107.267 180.236 107.241C180.22 107.216 180.198 107.194 180.172 107.177C178.543 105.521 177.54 103.957 176.079 102.199C173.852 99.534 171.26 96.8314 167.979 94.9573C166.523 94.1081 164.943 93.9472 164.406 95.0969C164.084 96.0318 164.654 97.1856 165.202 98.2386C165.781 99.2158 166.413 100.217 167.248 101.112C168.609 102.574 170.273 103.839 172.003 105.023C174 106.355 176.117 107.518 178.329 108.5L180.499 109.461C180.553 109.487 180.613 109.5 180.673 109.499C181.418 110.69 182.283 111.894 183.062 113.079C182.837 113.04 182.616 112.987 182.398 112.922C181.326 112.67 180.284 112.312 179.29 111.856C175.709 110.247 172.369 107.824 168.447 106.734C167.696 106.56 166.913 106.46 166.336 106.707C166.011 106.864 165.759 107.128 165.626 107.45C165.494 107.771 165.491 108.127 165.618 108.45C166.131 109.895 167.758 111.097 169.285 112.003C172.835 114.072 176.943 115.478 180.656 115.382C181.9 115.36 183.123 115.238 184.161 114.87L184.196 114.863C185.326 116.578 186.49 118.286 187.927 119.874C189.164 121.253 190.653 122.481 192.189 123.595C192.425 123.781 192.67 123.957 192.921 124.124C191.142 123.755 189.487 123.083 187.619 122.311C185.699 121.513 183.783 120.785 181.8 120.139C179.434 119.424 176.835 118.507 174.636 118.846C173.298 119.095 173.023 120.301 173.973 121.454C174.836 122.589 176.273 123.406 177.569 124.18C179.76 125.401 182.139 126.292 184.62 126.823C187.117 127.373 189.602 127.646 191.965 127.521C193.586 127.43 195.258 127.294 196.689 126.818C196.723 126.811 196.704 126.78 196.704 126.78C198.633 128.171 200.528 129.568 202.151 131.087C203.145 132.057 204.105 133.033 205.03 134.016C202.582 133.882 200.156 133.512 197.788 132.913C194.437 132.207 190.278 130.845 188.023 132.63C186.632 133.624 187.185 135.585 189.024 136.888C190.791 138.134 192.939 138.61 194.9 138.77C197.939 139.079 200.459 138.191 202.658 137.082C203.606 136.626 204.807 136.017 205.627 135.795C205.859 135.717 206.102 135.672 206.348 135.661L206.553 135.622C207.17 136.277 207.84 136.958 208.491 137.607C208.744 137.84 208.962 138.079 209.195 138.281L209.233 138.344C209.27 138.407 209.323 138.432 209.429 138.482L210.457 139.446C210.453 139.482 210.458 139.518 210.471 139.552C210.485 139.586 210.506 139.617 210.534 139.641C210.612 139.701 210.702 139.744 210.799 139.767C212.457 141.278 214.198 142.739 215.975 144.194C217.494 145.433 218.922 146.77 220.249 148.193C220.321 148.25 220.377 148.344 220.467 148.432C220.482 148.514 220.48 148.598 220.461 148.678C220.244 150.819 220.62 153.058 221.014 155.33C219.569 156.298 217.032 156.001 215.067 156.541C213.701 156.935 212.603 157.909 212.68 159.26C212.729 160.756 213.978 162.413 215.748 163.344C218.176 164.677 220.512 163.542 220.938 161.818C221.332 160.555 221.429 159.242 221.543 157.891C221.903 159.399 222.248 160.945 222.4 162.421C222.642 163.986 222.4 165.571 222.44 167.243C222.486 167.515 222.411 167.773 222.526 168.032C222.71 168.278 223.175 168.226 223.128 167.955C223.017 166.996 223.149 165.677 223.168 164.553C223.145 163.445 223.062 162.34 222.918 161.24C222.686 159.498 222.157 157.707 221.784 155.922L221.822 155.6C221.827 155.582 221.828 155.564 221.824 155.547C221.82 155.529 221.812 155.513 221.8 155.499C222.108 155.441 222.106 155.372 222.312 155.333C223.456 155.016 224.647 154.97 225.913 155.049C225.867 155.162 225.906 155.295 225.841 155.377C225.8 155.629 225.738 155.781 225.71 155.926C225.422 156.855 224.957 157.676 224.51 158.529C223.68 160.083 222.743 161.973 224.132 164.058C226.452 167.651 230.905 167.068 229.953 163.535C229.503 161.554 227.749 159.431 227.083 157.665C226.859 156.902 226.803 156.422 226.997 155.721C227.03 155.538 227.092 155.362 227.182 155.197C228.295 155.34 229.392 155.521 230.539 155.658C231.101 155.727 231.668 155.762 232.235 155.763ZM212.139 112.606C212.002 112.247 211.899 111.881 211.781 111.553C212.062 111.64 212.377 111.722 212.638 111.779C213.287 111.973 213.723 112.067 214.24 112.425L214.259 112.457L214.312 112.482C214.455 112.595 214.548 112.753 214.707 112.828C214.692 112.866 214.71 112.898 214.677 112.904C214.232 114.157 213.855 115.43 213.548 116.719C213.533 116.757 213.551 116.788 213.517 116.794C213.318 115.432 212.702 114.006 212.139 112.606ZM224.816 145.559C225.193 145.489 226.631 145.536 226.98 145.611C227.315 145.658 227.647 145.725 227.974 145.811C227.47 146.603 227.178 147.498 227.121 148.42C226.758 148.079 226.343 147.79 225.89 147.564C225.058 147.09 224.141 146.762 223.185 146.597L223.166 146.566C223.447 146.269 223.727 145.971 224.027 145.706L224.061 145.699C224.305 145.619 224.559 145.572 224.816 145.559ZM235.042 133.963C234.795 132.563 234.369 131.196 233.773 129.894C233.384 129.033 232.948 128.191 232.468 127.372C232.382 127.22 232.283 127.074 232.172 126.937L232.724 126.52C234.03 127.116 235.186 127.846 236.489 128.759C237.203 129.256 237.972 129.848 238.792 130.395C237.566 131.604 236.287 132.786 235.042 133.963L235.042 133.963ZM247.716 113.967C248.687 113.322 249.715 112.756 250.788 112.276C251.01 112.2 251.178 112.098 251.399 112.022C251.009 112.97 250.637 113.949 250.194 114.871C249.75 115.793 249.254 116.691 248.757 117.588C248.73 117.606 248.707 117.629 248.69 117.656C248.673 117.684 248.663 117.714 248.661 117.746C248.63 117.822 248.58 117.866 248.548 117.942C247.438 117.629 246.292 117.443 245.135 117.387C244.58 117.35 244.059 117.307 243.523 117.302C244.924 116.132 246.29 114.968 247.716 113.967V113.967ZM242.424 118.277C243.69 118.742 245.276 119.811 246.925 120.73C246.585 121.248 246.278 121.76 245.92 122.246C245.312 121.931 244.654 121.711 243.972 121.594C242.317 121.29 240.623 121.227 238.949 121.408C240.097 120.389 241.295 119.326 242.424 118.277ZM236.765 123.249C236.888 123.153 237.004 123.049 237.114 122.939C237.342 123.002 237.601 122.989 237.828 123.052C238.701 123.239 239.611 123.49 240.487 123.747C241.451 124.022 242.785 124.474 244.022 124.699C243.383 125.483 242.69 126.241 241.997 127.001C241.124 126.428 240.139 126.051 239.158 125.744C238.263 125.451 237.338 125.248 236.399 125.137C235.791 125.075 235.202 125.045 234.612 125.015C235.364 124.419 236.082 123.831 236.765 123.249V123.249ZM224.768 130.765C225.352 129.887 225.933 128.939 226.251 127.935C226.569 128.471 226.887 129.006 227.257 129.567C226.157 130.302 225.101 131.094 224.094 131.941C224.319 131.548 224.543 131.156 224.768 130.765L224.768 130.765ZM223.762 133.051C224.972 131.968 226.263 130.968 227.624 130.058C228.742 131.625 230.017 133.087 231.431 134.425C231.917 134.859 232.456 135.319 232.958 135.715C233.019 135.767 233.084 135.814 233.154 135.854C232.343 136.67 231.55 137.517 230.758 138.364C230.723 138.354 230.686 138.351 230.65 138.358C230.614 138.365 230.58 138.38 230.552 138.403C230.527 138.413 230.505 138.429 230.488 138.448C230.47 138.468 230.457 138.491 230.45 138.516C230.443 138.54 230.442 138.566 230.446 138.591C230.451 138.617 230.461 138.641 230.477 138.662C230.03 139.13 229.619 139.591 229.154 140.028C228.818 138.69 228.551 137.34 227.869 135.997C227.016 134.301 225.605 132.884 223.762 133.051ZM220.824 146.406C220.645 143.535 219.952 140.759 220.023 138.051C220.033 137.875 220.023 137.666 220.033 137.49C220.398 137.527 220.445 137.028 220.626 136.82C220.835 136.466 221.063 136.143 221.291 135.821C221.605 136.672 222.25 137.567 222.957 138.311C223.935 139.319 225.322 139.795 226.56 140.405C226.797 140.533 227.023 140.678 227.236 140.839C227.255 140.871 227.326 140.928 227.345 140.959C227.398 140.984 227.491 141.142 227.544 141.167C227.615 141.253 227.671 141.349 227.713 141.451C226.452 142.665 225.085 143.829 223.791 145.05C223.905 144.155 223.906 143.25 223.793 142.355C223.697 141.743 223.544 141.036 222.999 140.438C222.6 140.022 221.852 139.916 221.537 140.219C221.203 140.491 221.206 140.946 221.19 141.369C221.242 142.164 221.504 142.99 221.815 143.772C222.077 144.429 222.286 145.104 222.44 145.791C222.482 145.959 222.507 146.13 222.514 146.302C222.003 146.852 221.51 147.434 221.036 148.047C220.976 147.498 220.883 146.955 220.824 146.406H220.824ZM222.249 154.785C222.016 154.834 221.788 154.9 221.566 154.982L221.532 154.989C221.277 153.531 221.066 151.891 220.98 150.717C220.955 150.484 220.956 150.249 220.984 150.016C221.002 150.046 221.028 150.071 221.059 150.09C221.09 150.108 221.125 150.12 221.161 150.123C221.442 150.211 221.641 150.034 221.492 149.782C221.433 149.618 221.408 149.447 221.349 149.283C221.486 149.258 221.586 149.169 221.545 149.037C221.58 149.031 221.58 149.031 221.633 149.056C221.975 149.074 222.314 149.128 222.643 149.218C223.291 149.412 224.457 149.965 225.367 150.216C225.981 150.417 226.676 150.497 227.172 150.37C227.219 150.769 227.3 151.163 227.415 151.55C227.758 152.735 228.329 153.851 229.099 154.841C229.136 154.904 229.208 154.961 229.245 155.024C227.016 154.669 224.267 154.27 222.249 154.785H222.249Z" fill="#DAD8E4"/>
<path fill-rule="evenodd" clip-rule="evenodd" d="M86.2375 116.584C72.1886 119.719 51.0863 131.112 46.2246 110.013C42.8941 95.5555 82.4454 96.7899 90.6598 88.7797C108.73 71.1588 136.543 87.1003 124.65 92.7649C100.819 104.11 119.939 109.062 86.2375 116.584Z" fill="#F0EFF4"/>
<path fill-rule="evenodd" clip-rule="evenodd" d="M193.535 140.146C188.237 147.645 134.885 151.757 127.95 142.542C117.232 128.312 148.1 87.645 148.1 87.645C147.702 85.7013 147.627 81.0025 149.248 79.1689C151.703 76.3819 148.051 73.7349 150.323 73.1337C153.243 72.3639 155.583 74.9699 160.669 76.2732C163.683 77.0373 163.262 84.5112 160.413 88.6945C159.399 90.1786 157.462 90.3142 157.462 90.3142C157.462 90.3142 145.554 117.997 148.083 123.299C151.22 129.857 166.154 122.306 189.099 119.246C200.072 117.781 196.454 136.012 193.535 140.146Z" fill="#FFC197"/>
<mask id="mask0_546_29" style="mask-type:luminance" maskUnits="userSpaceOnUse" x="125" y="72" width="72" height="76">
<path d="M193.535 140.146C188.237 147.645 134.885 151.757 127.95 142.542C117.232 128.312 148.1 87.645 148.1 87.645C147.702 85.7013 147.627 81.0025 149.248 79.1689C151.703 76.3819 148.051 73.7349 150.323 73.1337C153.243 72.3639 155.583 74.9699 160.669 76.2732C163.683 77.0373 163.262 84.5112 160.413 88.6945C159.399 90.1786 157.462 90.3142 157.462 90.3142C157.462 90.3142 145.554 117.997 148.083 123.299C151.22 129.857 166.154 122.306 189.099 119.246C200.072 117.781 196.454 136.012 193.535 140.146Z" fill="white"/>
</mask>
<g mask="url(#mask0_546_29)">
<path fill-rule="evenodd" clip-rule="evenodd" d="M164.018 119.885C166.026 121.34 166.5 124.786 166.841 126.942C167.203 129.22 167.093 131.559 166.287 133.755C165.075 137.061 162.562 139.764 161.529 143.13C160.762 145.634 160.945 148.456 161.844 150.914C162.263 152.063 162.897 153.132 163.716 154.07C168.569 159.597 178.564 157.534 184.693 155.59C191.591 153.403 198.404 149.236 201.963 143.056C207.485 133.474 202.476 121.654 192.963 116.341C189.19 114.258 184.941 113.066 180.577 112.865C175.393 112.608 170.07 113.538 165.591 116.071L164.018 119.885Z" fill="#FE9400"/>
<path fill-rule="evenodd" clip-rule="evenodd" d="M143.838 89.4332C140.392 95.5775 135.946 109.013 133.627 115.57C130.667 123.989 129.489 130.37 134.037 137.909C139.418 146.853 157.38 143.358 166.169 141.06C168.109 140.552 170.024 139.964 171.909 139.298C174.568 138.379 177.151 137.272 179.635 135.988C184.759 133.282 189.038 129.563 192.869 125.393C193.971 124.197 194.958 122.89 196.123 121.753C196.469 121.413 196.995 120.912 197.558 120.973C198.506 121.076 198.724 122.729 198.852 123.371C199.339 126.034 199.3 128.816 199.108 131.502C198.352 142.118 194.701 152.723 184.656 158.521C178.456 162.103 170.73 163.217 163.658 164.197C156.598 165.175 149.167 166.06 142.018 165.444C129.258 164.345 115.792 159.106 108.81 148.414C100.739 136.028 104.454 119.475 111.078 107.292C112.731 104.255 114.64 101.334 116.908 98.6719C121.327 93.485 127.247 88.7633 134.229 87.1796L143.838 89.4332Z" fill="black" fill-opacity="0.1"/>
</g>
<path fill-rule="evenodd" clip-rule="evenodd" d="M79.1163 74.6326C78.4875 73.6976 77.2926 73.0264 75.922 72.8373C74.5718 72.6323 73.1899 72.9262 72.0629 73.658L13.8982 113.215C12.3904 114.241 11.9752 115.906 12.8906 117.267L86.0899 226.131C86.7277 227.079 87.9128 227.736 89.2931 227.94C90.6432 228.145 92.0252 227.851 93.1521 227.119L151.317 187.562C152.824 186.536 153.24 184.871 152.324 183.51L79.1163 74.6326ZM78.2422 74.9673L151.451 183.845C152.163 184.904 151.841 186.205 150.655 187.011L92.4909 226.568C91.6077 227.139 90.5284 227.372 89.4708 227.219C88.3877 227.074 87.4632 226.541 86.964 225.798L13.7648 116.933C13.0435 115.861 13.3644 114.56 14.5502 113.753L72.7143 74.1961C73.5975 73.6256 74.6768 73.393 75.7344 73.5453C76.8277 73.704 77.7429 74.224 78.2422 74.9665V74.9673Z" fill="#77536F"/>
<path fill-rule="evenodd" clip-rule="evenodd" d="M90.3724 73.6393C90.2661 73.4786 90.1254 73.3407 89.9594 73.2345C89.7933 73.1283 89.6056 73.056 89.4082 73.0224C89.2144 72.9876 89.0152 72.9896 88.8222 73.0282C88.6292 73.0669 88.4463 73.1414 88.284 73.2475L26.2938 115.406C25.9903 115.614 25.7826 115.925 25.7133 116.273C25.644 116.621 25.7185 116.981 25.9213 117.279L98.4043 225.078C98.5093 225.237 98.6487 225.373 98.8133 225.477C98.9779 225.581 99.1639 225.651 99.3591 225.682C99.5529 225.72 99.753 225.72 99.9467 225.681C100.14 225.643 100.323 225.566 100.484 225.457L162.474 183.298C162.778 183.094 162.987 182.786 163.058 182.44C163.129 182.094 163.056 181.735 162.855 181.438L90.3724 73.6393Z" fill="#A9A5C6"/>
<path fill-rule="evenodd" clip-rule="evenodd" d="M137.383 158.409C136.352 156.875 134.433 155.786 132.184 155.474C129.935 155.162 127.627 155.652 125.927 156.807L93.5387 178.834C89.4115 181.641 88.2991 186.171 90.8081 189.902C91.8399 191.436 93.7572 192.523 96.0062 192.835C98.2552 193.147 100.564 192.658 102.256 191.507L134.652 169.475C138.77 166.674 139.892 162.14 137.383 158.409ZM136.685 158.672L136.686 158.673C139.035 162.167 137.984 166.413 134.127 169.036L101.73 191.069C100.221 192.096 98.1548 192.536 96.1467 192.257C94.1467 191.972 92.4265 191.007 91.5056 189.638C89.1566 186.144 90.207 181.898 94.0649 179.275L126.461 157.242C127.97 156.215 130.037 155.775 132.036 156.058C134.044 156.338 135.764 157.302 136.685 158.672H136.685Z" fill="white"/>
<path fill-rule="evenodd" clip-rule="evenodd" d="M163.437 148.631C162.786 147.663 161.932 146.831 160.928 146.186C159.924 145.541 158.792 145.096 157.599 144.879C156.407 144.662 155.181 144.678 153.995 144.924C152.809 145.171 151.69 145.644 150.704 146.315L109.258 174.502C107.164 175.925 105.726 178.05 105.239 180.442C104.751 182.835 105.25 185.313 106.634 187.368C107.285 188.337 108.139 189.17 109.142 189.815C110.146 190.461 111.279 190.906 112.471 191.123C113.664 191.34 114.891 191.324 116.076 191.077C117.262 190.83 118.382 190.356 119.367 189.685L160.814 161.498C162.905 160.074 164.341 157.949 164.829 155.558C165.317 153.166 164.82 150.689 163.438 148.633L163.437 148.631Z" fill="#77536F"/>
<path fill-rule="evenodd" clip-rule="evenodd" d="M115.535 126.964C115.272 126.573 114.927 126.237 114.521 125.976C114.116 125.716 113.658 125.536 113.176 125.449C112.695 125.361 112.199 125.368 111.72 125.468C111.241 125.568 110.789 125.76 110.391 126.031L69.871 153.589C69.0306 154.159 68.453 155.012 68.2568 155.973C68.0606 156.933 68.2605 157.928 68.8157 158.753C69.0783 159.143 69.4226 159.479 69.8273 159.739C70.232 160 70.6887 160.179 71.1694 160.267C71.6502 160.355 72.1448 160.349 72.6231 160.25C73.1013 160.151 73.5532 159.961 73.951 159.691L114.479 132.129C115.32 131.558 115.898 130.705 116.094 129.745C116.29 128.785 116.09 127.79 115.535 126.965L115.535 126.964ZM124.157 139.784C123.894 139.392 123.549 139.056 123.143 138.796C122.738 138.535 122.28 138.355 121.798 138.268C121.316 138.181 120.821 138.187 120.342 138.287C119.863 138.387 119.411 138.579 119.013 138.85L78.4927 166.408C77.6523 166.979 77.0747 167.832 76.8785 168.792C76.6823 169.753 76.8822 170.747 77.4374 171.573C77.7 171.963 78.0443 172.299 78.449 172.559C78.8537 172.819 79.3104 172.999 79.7911 173.087C80.2718 173.175 80.7665 173.169 81.2447 173.07C81.723 172.971 82.1749 172.781 82.5726 172.511L123.101 144.948C123.941 144.377 124.519 143.525 124.715 142.564C124.912 141.604 124.712 140.61 124.157 139.784V139.784Z" fill="white"/>
<path d="M120.082 179.324L121.214 178.442C121.32 178.543 121.449 178.621 121.591 178.67C121.732 178.719 121.884 178.738 122.034 178.725C122.402 178.671 122.749 178.526 123.038 178.305C123.357 178.113 123.623 177.852 123.814 177.544C123.936 177.304 123.949 177.107 123.852 176.962C123.821 176.916 123.779 176.878 123.729 176.851C123.679 176.823 123.622 176.808 123.564 176.806C123.372 176.81 123.184 176.854 123.012 176.934C122.853 176.997 122.489 177.162 121.923 177.419C121.202 177.759 120.659 177.941 120.288 177.96C119.773 177.995 119.415 177.856 119.204 177.542C119.065 177.318 119.021 177.053 119.08 176.8C119.159 176.463 119.324 176.15 119.561 175.887C119.879 175.529 120.247 175.213 120.654 174.948C121.412 174.433 122.055 174.153 122.582 174.11C123.11 174.066 123.502 174.228 123.763 174.576L122.578 175.434C122.497 175.356 122.397 175.296 122.288 175.26C122.178 175.224 122.061 175.213 121.946 175.226C121.63 175.29 121.335 175.424 121.085 175.616C120.79 175.798 120.541 176.039 120.355 176.323C120.312 176.375 120.286 176.439 120.28 176.505C120.275 176.572 120.29 176.639 120.325 176.697C120.364 176.745 120.418 176.782 120.479 176.803C120.54 176.824 120.606 176.829 120.669 176.815C120.881 176.791 121.313 176.633 121.961 176.321C122.445 176.079 122.95 175.876 123.47 175.714C123.772 175.623 124.093 175.606 124.404 175.665C124.681 175.731 124.918 175.899 125.064 176.131C125.222 176.382 125.273 176.681 125.206 176.966C125.127 177.334 124.948 177.676 124.686 177.957C124.335 178.35 123.929 178.697 123.48 178.987C122.716 179.507 122.057 179.79 121.495 179.835C121.233 179.864 120.968 179.832 120.722 179.743C120.477 179.654 120.257 179.511 120.082 179.324ZM124.665 173.34L124.194 172.64L125.347 171.856L125.818 172.556L124.665 173.34ZM126.854 176.595L124.925 173.727L126.077 172.943L128.006 175.812L126.854 176.595ZM129.208 175.265L130.596 174.479C130.63 174.519 130.675 174.55 130.725 174.569C130.776 174.587 130.832 174.592 130.885 174.583C131.096 174.535 131.293 174.442 131.46 174.311C131.698 174.163 131.906 173.978 132.078 173.764C132.149 173.662 132.183 173.542 132.175 173.42C132.147 173.279 132.086 173.146 131.996 173.031L131.716 172.614C131.574 173.165 131.221 173.646 130.725 173.964C130.136 174.364 129.562 174.514 129.005 174.42C128.787 174.385 128.58 174.305 128.398 174.186C128.216 174.068 128.063 173.913 127.95 173.734C127.795 173.524 127.695 173.282 127.659 173.028C127.623 172.774 127.653 172.515 127.745 172.274C127.943 171.755 128.312 171.31 128.798 171.003C129.263 170.656 129.855 170.497 130.444 170.559L130.173 170.158L131.251 169.425L132.983 172.001C133.171 172.253 133.302 172.54 133.367 172.843C133.394 173.06 133.363 173.28 133.277 173.483C133.16 173.719 133.003 173.934 132.812 174.122C132.535 174.399 132.228 174.648 131.896 174.864C131.157 175.367 130.576 175.642 130.155 175.681C129.737 175.724 129.438 175.62 129.265 175.362C129.244 175.331 129.225 175.298 129.208 175.265ZM129.107 172.887C129.311 173.191 129.547 173.352 129.826 173.373C130.116 173.386 130.402 173.301 130.632 173.133C130.896 172.963 131.096 172.717 131.2 172.431C131.247 172.29 131.258 172.141 131.233 171.995C131.208 171.849 131.147 171.711 131.056 171.591C130.855 171.293 130.612 171.135 130.333 171.114C130.025 171.105 129.723 171.199 129.48 171.379C129.226 171.542 129.036 171.779 128.939 172.055C128.9 172.196 128.894 172.345 128.923 172.489C128.952 172.633 129.015 172.769 129.107 172.887ZM138.284 168.822L137.132 169.606L136.148 168.143C135.94 167.834 135.78 167.65 135.668 167.592C135.55 167.537 135.417 167.52 135.288 167.542C135.123 167.574 134.968 167.641 134.835 167.737C134.645 167.862 134.487 168.024 134.369 168.212C134.267 168.364 134.22 168.543 134.237 168.722C134.307 168.98 134.428 169.224 134.593 169.441L135.466 170.739L134.313 171.523L132.384 168.654L133.455 167.925L133.739 168.347C133.913 167.751 134.306 167.233 134.848 166.888C135.082 166.726 135.338 166.595 135.609 166.498C135.81 166.426 136.025 166.395 136.24 166.406C136.4 166.424 136.552 166.481 136.68 166.572C136.842 166.706 136.979 166.863 137.086 167.039L138.284 168.822ZM139.125 162.485L140.34 161.659L141.781 163.802C141.921 164.026 142.084 164.237 142.268 164.431C142.359 164.494 142.462 164.539 142.572 164.562C142.682 164.586 142.796 164.587 142.907 164.567C143.554 164.405 144.116 164.025 144.489 163.499C144.595 163.332 144.628 163.131 144.58 162.942C144.475 162.694 144.341 162.457 144.179 162.238L142.707 160.049L143.922 159.223L145.318 161.298C145.637 161.772 145.834 162.133 145.897 162.376C145.966 162.619 145.957 162.875 145.872 163.113C145.759 163.409 145.591 163.683 145.376 163.923C145.06 164.265 144.7 164.568 144.304 164.825C143.727 165.217 143.268 165.47 142.905 165.582C142.61 165.692 142.294 165.741 141.978 165.724C141.747 165.714 141.525 165.641 141.336 165.516C141.023 165.248 140.755 164.936 140.541 164.592L139.125 162.485ZM145.893 159.466L146.971 158.734L147.255 159.155C147.307 158.891 147.419 158.641 147.584 158.422C147.77 158.159 148.008 157.932 148.283 157.751C148.725 157.425 149.274 157.253 149.836 157.265C150.366 157.28 150.787 157.527 151.099 157.99C151.254 158.204 151.354 158.449 151.392 158.706C151.43 158.962 151.405 159.224 151.318 159.47C151.131 159.99 150.769 160.439 150.288 160.748C150.071 160.9 149.831 161.018 149.575 161.098C149.302 161.173 149.019 161.206 148.736 161.195L149.709 162.643L148.557 163.426L145.893 159.466ZM147.965 160.076C148.183 160.401 148.442 160.57 148.741 160.592C149.051 160.611 149.358 160.522 149.604 160.343C149.855 160.182 150.04 159.945 150.129 159.671C150.211 159.412 150.142 159.121 149.929 158.801C149.724 158.498 149.488 158.336 149.205 158.31C148.906 158.297 148.613 158.385 148.377 158.557C148.114 158.723 147.919 158.967 147.821 159.251C147.776 159.39 147.766 159.536 147.791 159.679C147.816 159.823 147.876 159.958 147.965 160.076Z" fill="white"/>
<path d="M86.8504 130.881C94.5942 124.01 95.9838 113.523 89.9543 107.456C83.9248 101.39 72.7593 102.042 65.0156 108.912C57.2718 115.783 55.8822 126.27 61.9117 132.336C67.9412 138.403 79.1067 137.751 86.8504 130.881Z" fill="white"/>
<path fill-rule="evenodd" clip-rule="evenodd" d="M74.3233 127.446C72.0763 127.414 70.0508 126.483 68.86 124.712C66.7014 121.502 68.1107 116.74 72.0143 114.085C75.9178 111.43 80.8539 111.879 83.012 115.089C84.4082 117.166 84.2941 119.896 83.0052 122.277C88.2971 120.595 93.0325 121.428 94.2264 124.534C95.6237 128.181 91.6004 133.593 85.2544 136.607C78.9084 139.621 72.6022 139.113 71.2051 135.465C70.3335 133.147 71.6254 130.121 74.3233 127.446Z" fill="#D1CFE1"/>
<path fill-rule="evenodd" clip-rule="evenodd" d="M188.736 201.246C190.094 177.037 181.087 155.967 181.907 142.127C182.432 133.347 178.409 120.316 193.681 118.205C206.775 116.396 222.957 119.665 226.147 122.994C232.604 129.71 230.259 166.123 224.122 171.09C211.823 178.509 198.345 193.834 188.736 201.246Z" fill="#FE9400"/>
<mask id="mask1_546_29" style="mask-type:luminance" maskUnits="userSpaceOnUse" x="181" y="117" width="49" height="85">
<path d="M188.736 201.246C190.094 177.037 181.087 155.967 181.907 142.127C182.432 133.347 178.409 120.316 193.681 118.205C206.775 116.396 222.957 119.665 226.147 122.994C232.604 129.71 230.259 166.123 224.122 171.09C211.823 178.509 198.345 193.834 188.736 201.246Z" fill="white"/>
</mask>
<g mask="url(#mask1_546_29)">
<path fill-rule="evenodd" clip-rule="evenodd" d="M215.217 136.297C214.153 137.638 213.551 139.298 213.051 140.886C211.732 144.981 211.681 149.068 212.283 153.281C212.872 157.443 214.038 161.753 213.243 165.962C212.641 169.076 210.873 171.65 209.144 174.294C204.801 180.943 202.238 183.127 196.357 188.057C193.013 190.851 186.492 202.335 187.479 206.804C188.158 209.921 193.372 206.894 195.333 205.942C200.65 203.353 205.403 199.713 210.592 196.869C217.997 192.801 226.325 189.287 231.872 182.883C239.239 174.372 240.123 161.502 237.292 151.182C235.946 146.27 233.576 141.129 228.9 138.311L215.217 136.297Z" fill="black" fill-opacity="0.1"/>
</g>
<path fill-rule="evenodd" clip-rule="evenodd" d="M224.633 123.432C233.436 126.943 251.361 174.728 241.057 183.63C230.753 192.532 162.822 176.849 162.822 176.849C160.876 177.584 156.018 178.535 153.795 177.374C150.449 175.62 152.508 171.704 151.457 169.709C150.109 167.144 140.479 172.915 140.867 167.947C141.109 165.009 156.72 163.365 161.603 165.226C163.35 165.89 163.854 167.663 163.854 167.663C163.854 167.663 212.237 171.897 217.275 168.554C223.504 164.413 207.89 149.483 210.32 132.606C211.815 122.232 219.8 121.501 224.633 123.432Z" fill="#FFC197"/>
<mask id="mask2_546_29" style="mask-type:luminance" maskUnits="userSpaceOnUse" x="140" y="122" width="105" height="65">
<path d="M224.633 123.432C233.436 126.943 251.361 174.728 241.057 183.63C230.753 192.532 162.822 176.849 162.822 176.849C160.876 177.584 156.018 178.535 153.795 177.374C150.449 175.62 152.508 171.704 151.457 169.709C150.109 167.144 140.479 172.915 140.867 167.947C141.109 165.009 156.72 163.365 161.603 165.226C163.35 165.89 163.854 167.663 163.854 167.663C163.854 167.663 212.237 171.897 217.275 168.554C223.504 164.413 207.89 149.483 210.32 132.606C211.815 122.232 219.8 121.501 224.633 123.432Z" fill="white"/>
</mask>
<g mask="url(#mask2_546_29)">
<path fill-rule="evenodd" clip-rule="evenodd" d="M210.735 154.408C211.872 152.271 215.365 151.184 217.542 150.464C219.843 149.701 222.295 149.364 224.729 149.7C228.393 150.204 231.675 152.029 235.368 152.356C238.115 152.598 241.015 151.899 243.402 150.604C244.518 149.999 245.51 149.21 246.331 148.275C251.167 142.734 247.147 133.845 243.977 128.522C240.409 122.531 234.799 116.99 227.706 114.846C216.709 111.519 205.36 118.385 201.621 128.209C200.163 132.102 199.721 136.269 200.331 140.357C201.036 145.216 203.001 149.981 206.476 153.662L210.735 154.408Z" fill="#FE9400"/>
</g>
<path fill-rule="evenodd" clip-rule="evenodd" d="M195.761 117.878C195.761 117.878 200.924 114.27 199.72 110.471C199.412 109.474 197.081 112.284 194.979 111.068C192.109 109.394 191.418 99.751 194.659 94.7336C196.67 91.6238 203.743 89.7585 206.049 91.8768C208.355 93.9952 209.265 103.024 208.47 107.445C207.215 114.498 214.018 118.74 214.018 118.74C214.018 118.74 202.718 127.285 199.873 134.377C199.041 136.46 195.761 117.878 195.761 117.878Z" fill="#FFC197"/>
<mask id="mask3_546_29" style="mask-type:luminance" maskUnits="userSpaceOnUse" x="192" y="90" width="23" height="45">
<path d="M195.761 117.878C195.761 117.878 200.924 114.27 199.72 110.471C199.412 109.474 197.081 112.284 194.979 111.068C192.109 109.394 191.418 99.751 194.659 94.7336C196.67 91.6238 203.743 89.7585 206.049 91.8768C208.355 93.9952 209.265 103.024 208.47 107.445C207.215 114.498 214.018 118.74 214.018 118.74C214.018 118.74 202.718 127.285 199.873 134.377C199.041 136.46 195.761 117.878 195.761 117.878Z" fill="white"/>
</mask>
<g mask="url(#mask3_546_29)">
<path fill-rule="evenodd" clip-rule="evenodd" d="M198.373 110.99C198.783 110.781 199.116 110.354 199.424 110.034C200.13 109.319 200.781 108.556 201.371 107.752C201.589 107.432 201.807 107.106 202.05 106.79C202.101 106.71 202.242 106.478 202.37 106.478C202.498 106.478 202.422 106.877 202.409 106.929C202.323 107.488 202.186 108.039 201.999 108.575C201.294 110.771 199.846 112.414 198.296 114.123L198.373 110.99Z" fill="black" fill-opacity="0.1"/>
</g>
<path fill-rule="evenodd" clip-rule="evenodd" d="M196.235 98.8082C195.274 98.7538 194.377 98.2236 193.634 97.6813C190.777 95.6017 190.97 91.9835 193.455 89.703C194.954 88.334 198.028 87.4201 199.464 89.3472C199.925 88.7299 200.886 88.4683 201.616 88.3073C202.209 88.1586 202.824 88.1078 203.435 88.1572C207.612 88.6887 206.638 93.6479 209.815 95.2337C210.853 94.603 211.994 96.6644 212.198 97.2927C212.903 99.4777 212.596 103.212 209.931 104.083C209.7 104.671 209.111 105.083 208.586 105.422C207.138 106.363 204.806 107.036 203.192 106.064C202.998 105.945 202.821 105.803 202.666 105.64C201.513 104.428 202.731 103.047 203.115 101.788C203.32 101.125 203.487 100.294 202.872 99.7729C202.372 99.3637 201.872 99.5961 201.475 99.9911C200.873 100.593 200.54 101.541 199.579 101.71C198.195 101.952 196.85 100.696 196.414 99.8143C196.324 99.6277 196.235 98.8082 196.235 98.8082Z" fill="black"/>
<path fill-rule="evenodd" clip-rule="evenodd" d="M187.401 89.1891C187.401 88.7635 187.276 88.3464 187.038 87.9851C186.8 87.6238 186.459 87.3327 186.055 87.1451L134.596 63.2343C134.228 63.0647 133.821 62.9861 133.412 63.0059C133.003 63.0258 132.607 63.1434 132.259 63.3478C131.912 63.5521 131.625 63.8366 131.425 64.1743C131.226 64.5121 131.121 64.8922 131.12 65.2789V73.325C131.121 73.7502 131.247 74.1668 131.485 74.5278C131.723 74.8889 132.062 75.1802 132.465 75.369L183.935 99.2843C184.302 99.4547 184.71 99.5336 185.119 99.5137C185.527 99.4937 185.924 99.3755 186.271 99.1703C186.618 98.965 186.904 98.6795 187.102 98.3407C187.299 98.002 187.402 97.6211 187.401 97.2343L187.401 89.1891Z" fill="#77536F"/>
<path fill-rule="evenodd" clip-rule="evenodd" d="M138.379 75.149L137.284 73.9784L138.709 72.6107L136.19 70.8102L136.527 69.7963L139.045 71.5966L138.912 69.1145L140.215 69.6578L140.348 72.1399L142.784 72.4063L143.248 73.7539L140.811 73.4874L142.452 76.1339L141.435 76.4238L139.803 73.7798L138.379 75.149ZM147.443 79.3557L146.348 78.185L147.773 76.8173L145.254 75.0171L145.591 74.0033L148.11 75.8034L147.976 73.3215L149.279 73.8648L149.412 76.3467L151.848 76.6133L152.312 77.9608L149.876 77.6943L151.516 80.3408L150.5 80.6307L148.867 77.9868L147.443 79.3557ZM157.155 83.4483L156.06 82.2777L157.485 80.91L154.966 79.1099L155.303 78.0961L157.822 79.8963L157.688 77.4143L158.991 77.9576L159.124 80.4396L161.561 80.7061L162.024 82.0537L159.588 81.7871L161.228 84.4336L160.212 84.7236L158.579 82.0796L157.155 83.4483ZM166.639 88.2755L165.544 87.1048L166.969 85.7371L164.45 83.9369L164.787 82.9232L167.305 84.7233L167.172 82.2414L168.475 82.7847L168.608 85.2666L171.044 85.5332L171.508 86.8806L169.071 86.6142L170.712 89.2606L169.695 89.5506L168.063 86.9067L166.639 88.2755ZM176.646 92.9256L175.552 91.755L176.976 90.3873L174.458 88.5872L174.794 87.5734L177.313 89.3736L177.18 86.8915L178.482 87.4348L178.616 89.9169L181.052 90.1833L181.516 91.531L179.079 91.2644L180.719 93.9109L179.703 94.2009L178.071 91.5569L176.646 92.9256Z" fill="white"/>
<path fill-rule="evenodd" clip-rule="evenodd" d="M155.049 89.066C155.85 88.2075 160.658 86.1394 161.921 85.9734C163.933 85.694 165.828 86.9398 165.131 88.7482C164.853 89.444 158.762 91.0426 157.087 91.0993C156.401 91.1198 154.729 89.4061 155.049 89.066Z" fill="#FFC197"/>
</svg>
