<svg width="56" height="56" viewBox="0 0 56 56" fill="none" xmlns="http://www.w3.org/2000/svg">
<rect width="56" height="56" rx="12" fill="white"/>
<rect x="1" y="1" width="54" height="54" rx="11" stroke="#5934FE" stroke-opacity="0.5" stroke-width="2"/>
<path d="M20.0968 33V32.2452C20.5355 32.1806 20.9097 32.0581 21.2194 31.8774C21.529 31.6839 21.8129 31.4065 22.071 31.0452C22.329 30.671 22.5935 30.1806 22.8645 29.5742L27.3548 19.1613H28.071L33.2774 30.5419C33.5613 31.1484 33.871 31.5806 34.2065 31.8387C34.5548 32.0839 35.0323 32.2194 35.6387 32.2452V33C35.2387 32.9742 34.7355 32.9613 34.129 32.9613C33.5226 32.9484 32.8194 32.9419 32.0194 32.9419C31.1419 32.9419 30.3871 32.9484 29.7548 32.9613C29.1226 32.9613 28.6387 32.9742 28.3032 33V32.2452C28.9484 32.2323 29.4258 32.1677 29.7355 32.0516C30.0581 31.9355 30.2387 31.7548 30.2774 31.5097C30.3161 31.2645 30.2387 30.9226 30.0452 30.4839L26.3871 22.3935L26.8323 22.1613L23.9871 28.8194C23.6645 29.5806 23.5032 30.2129 23.5032 30.7161C23.5032 31.2065 23.6774 31.5806 24.0258 31.8387C24.3742 32.0839 24.9032 32.2194 25.6129 32.2452V33C25.1613 32.9871 24.7548 32.9806 24.3935 32.9806C24.0323 32.9677 23.6903 32.9613 23.3677 32.9613C23.0581 32.9484 22.7355 32.9419 22.4 32.9419C21.9871 32.9419 21.5935 32.9484 21.2194 32.9613C20.8452 32.9613 20.471 32.9742 20.0968 33ZM23.6387 28.6065L23.9677 27.871H29.9677L30.2968 28.6065H23.6387Z" fill="#6745FF"/>
<path d="M22.8706 40.2083C22.8706 40.8467 22.3531 41.3642 21.7147 41.3642H15.9353C15.3222 41.3642 14.7342 41.1206 14.3006 40.6871C13.8671 40.2536 13.6235 39.6656 13.6235 39.0524V15.9348C13.6235 15.3217 13.8671 14.7337 14.3006 14.3001C14.7342 13.8666 15.3222 13.623 15.9353 13.623H39.0529C39.6661 13.623 40.2541 13.8666 40.6876 14.3001C41.1211 14.7337 41.3647 15.3217 41.3647 15.9348V27.4936C41.3647 28.132 40.8472 28.6495 40.2088 28.6495C39.5704 28.6495 39.0529 28.132 39.0529 27.4936V17.9348C39.0529 16.8302 38.1575 15.9348 37.0529 15.9348H17.9353C16.8307 15.9348 15.9353 16.8302 15.9353 17.9348V37.0524C15.9353 38.157 16.8307 39.0524 17.9353 39.0524H21.7147C22.3531 39.0524 22.8706 39.57 22.8706 40.2083Z" fill="#6745FF"/>
<path d="M35.5854 40.4165L32.5917 37.4227L30.9619 39.0525L35.5854 43.676L43.6766 35.5849L42.0468 33.9551L35.5854 40.4165Z" fill="#6745FF"/>
</svg>
