<svg width="99" height="99" viewBox="0 0 99 99" fill="none" xmlns="http://www.w3.org/2000/svg">
<path d="M70.6396 28.2126C82.3553 39.9283 82.3553 58.9233 70.6396 70.639C58.9239 82.3547 39.9289 82.3547 28.2132 70.639C16.4975 58.9233 16.4975 39.9283 28.2132 28.2126C39.9289 16.4968 58.9239 16.4968 70.6396 28.2126ZM30.1034 68.7488C40.7752 79.4206 58.0776 79.4206 68.7494 68.7488C79.4212 58.077 79.4212 40.7746 68.7494 30.1028C58.0776 19.431 40.7752 19.431 30.1034 30.1028C19.4316 40.7746 19.4316 58.077 30.1034 68.7488Z" fill="#A18838"/>
<path d="M49.288 53.5935C49.2363 51.8129 49.0686 50.0839 48.7847 48.4064C48.5267 46.729 48.2299 45.1548 47.8944 43.6839C47.5847 42.2129 47.3009 40.8968 47.0428 39.7355C46.8105 38.5484 46.6944 37.5419 46.6944 36.7161C46.6944 35.5032 46.9783 34.5355 47.546 33.8129C48.1396 33.0903 48.9396 32.729 49.946 32.729C50.9525 32.729 51.7654 33.1032 52.3847 33.8516C53.0041 34.5742 53.3138 35.5419 53.3138 36.7548C53.3138 37.5548 53.1847 38.5484 52.9267 39.7355C52.6944 40.8968 52.4105 42.2129 52.0751 43.6839C51.7654 45.1548 51.4686 46.729 51.1847 48.4064C50.9267 50.0839 50.7718 51.8129 50.7202 53.5935H49.288ZM49.9847 63.5419C48.9009 63.5419 48.0363 63.2581 47.3912 62.6903C46.7718 62.1226 46.4621 61.3484 46.4621 60.3677C46.4621 59.4129 46.7718 58.6516 47.3912 58.0839C48.0363 57.5161 48.9009 57.2323 49.9847 57.2323C51.0686 57.2323 51.9331 57.5161 52.5783 58.0839C53.2234 58.6516 53.546 59.4129 53.546 60.3677C53.546 61.3484 53.2234 62.1226 52.5783 62.6903C51.9331 63.2581 51.0686 63.5419 49.9847 63.5419Z" fill="#A18838"/>
</svg>
